<svg xmlns="http://www.w3.org/2000/svg" viewBox="0 0 768 768" fill="none">
  <path d="M 345.000 417.820 C 344.978 423.618 342.269 428.727 338.175 432.824 C 334.082 436.921 329.980 441.020 325.882 445.118 C 321.785 449.215 317.687 453.313 313.590 457.411 C 309.493 461.508 305.624 465.992 300.376 468.499 C 295.128 471.006 289.458 472.256 284.365 475.017 C 279.271 477.778 273.866 479.984 268.071 480.001 C 262.276 480.018 256.990 483.001 251.195 482.996 C 245.401 482.991 239.216 484.482 233.898 482.205 C 228.579 479.928 222.728 480.191 216.935 479.990 C 211.142 479.789 206.206 475.900 201.020 473.323 C 195.833 470.747 190.329 468.673 185.876 464.895 C 181.423 461.116 176.367 458.359 172.265 454.263 C 168.163 450.168 164.116 445.993 161.242 440.988 C 158.369 435.982 154.966 431.323 152.377 426.124 C 149.789 420.925 147.978 415.476 146.769 409.780 C 145.560 404.083 143.964 398.699 143.999 392.908 C 144.035 387.116 142.633 382.044 143.752 376.321 C 144.872 370.599 142.496 364.260 145.170 359.114 C 147.844 353.969 148.815 348.336 149.893 342.587 C 150.970 336.839 154.892 332.300 157.988 327.432 C 161.084 322.564 164.817 318.182 168.915 314.085 C 173.012 309.987 176.799 305.553 181.329 301.909 C 185.859 298.265 190.971 295.597 196.033 292.764 C 201.094 289.930 206.891 288.935 212.027 286.215 C 217.163 283.495 222.894 281.996 228.688 282.004 C 234.482 282.011 240.324 280.672 245.904 280.505 C 251.485 280.339 257.319 282.006 263.113 282.004 C 268.907 282.002 274.642 283.484 279.796 286.119 C 284.950 288.754 290.938 288.819 296.156 291.315 C 301.375 293.811 306.156 297.249 310.295 301.302 C 314.434 305.356 318.492 309.492 322.589 313.589 C 326.687 317.687 330.784 321.784 334.882 325.882 C 338.979 329.979 343.724 333.597 346.899 338.433 C 350.074 343.268 353.709 347.708 357.799 351.801 C 361.889 355.895 367.332 358.146 372.438 360.915 C 377.544 363.685 383.853 364.226 389.379 362.470 C 394.905 360.713 400.303 358.160 404.639 354.262 C 408.974 350.365 412.059 345.533 415.497 340.864 C 418.936 336.195 423.512 332.489 427.609 328.391 C 431.707 324.293 435.804 320.196 439.902 316.099 C 443.999 312.001 448.100 307.904 452.196 303.807 C 456.291 299.710 461.068 296.377 466.381 294.052 C 471.693 291.728 476.864 289.195 482.368 287.475 C 487.872 285.754 492.947 282.271 498.740 282.019 C 504.534 281.767 510.439 283.207 516.058 281.295 C 521.677 279.384 527.369 282.001 533.164 282.000 C 538.960 281.998 544.300 284.035 550.017 285.190 C 555.735 286.345 561.388 287.263 566.489 290.046 C 571.589 292.830 575.309 297.571 580.569 300.032 C 585.829 302.493 589.418 307.413 593.514 311.513 C 597.609 315.613 601.397 319.946 604.222 325.009 C 607.048 330.072 609.187 335.501 612.856 340.024 C 616.526 344.546 617.990 350.379 618.002 356.174 C 618.014 361.968 620.995 367.255 620.996 373.049 C 620.997 378.844 621.014 384.638 620.999 390.434 C 620.984 396.229 617.973 401.517 617.998 407.310 C 618.023 413.102 616.674 418.750 613.879 423.827 C 611.084 428.903 608.975 434.362 605.276 438.862 C 601.576 443.362 598.684 448.310 594.587 452.412 C 590.490 456.514 585.939 459.988 581.183 463.267 C 576.427 466.546 571.362 469.286 566.276 472.066 C 561.191 474.846 556.332 478.324 550.669 479.666 C 545.005 481.009 539.174 480.327 533.747 482.347 C 528.321 484.367 522.217 483.007 516.422 483.001 C 510.627 482.994 505.338 480.076 499.546 480.000 C 493.753 479.924 488.095 478.936 482.929 476.279 C 477.763 473.622 471.719 472.960 467.008 469.610 C 462.296 466.260 457.882 462.412 452.810 459.645 C 447.739 456.878 443.270 453.018 439.715 448.425 C 436.161 443.833 433.044 439.049 428.945 434.945 C 424.846 430.841 419.988 426.606 420.001 420.820" stroke="#22263D" stroke-width="46.026" stroke-linecap="butt" stroke-linejoin="round" fill="none"/>
</svg>
