<svg xmlns="http://www.w3.org/2000/svg" viewBox="0 0 768 768" fill="none">
  <rect width="768" height="768" fill="#FFFFFF"/>
  <path d="M 344.840 419.343 C 343.978 425.006 340.539 429.895 336.666 434.112 C 332.794 438.329 328.682 442.317 324.634 446.365 C 320.587 450.413 316.571 454.494 312.439 458.456 C 308.306 462.418 303.926 466.221 298.816 468.805 C 293.706 471.388 288.298 473.322 283.078 475.673 C 277.859 478.023 272.287 479.446 266.617 480.239 C 260.947 481.032 255.377 482.574 249.658 482.848 C 243.940 483.122 238.199 482.651 232.588 481.517 C 226.977 480.384 221.191 480.334 215.593 479.127 C 209.996 477.920 204.866 475.184 199.753 472.610 C 194.640 470.035 189.603 467.293 184.842 464.113 C 180.082 460.933 175.608 457.323 171.536 453.299 C 167.464 449.275 163.778 444.862 160.548 440.136 C 157.318 435.409 154.428 430.437 152.147 425.186 C 149.866 419.935 148.071 414.485 146.415 409.005 C 144.759 403.525 144.235 397.795 143.674 392.098 C 143.112 386.401 142.808 380.682 143.452 374.993 C 144.095 369.305 144.385 363.561 145.684 357.985 C 146.982 352.410 148.332 346.829 150.341 341.467 C 152.349 336.106 155.247 331.115 158.546 326.436 C 161.845 321.758 165.673 317.475 169.687 313.393 C 173.701 309.311 177.828 305.320 182.356 301.818 C 186.885 298.315 191.713 295.194 196.789 292.547 C 201.865 289.900 207.262 287.929 212.692 286.117 C 218.123 284.305 223.650 282.619 229.359 282.195 C 235.068 281.771 240.788 281.353 246.512 281.404 C 252.237 281.454 257.961 281.756 263.662 282.279 C 269.363 282.802 274.827 284.700 280.317 286.321 C 285.808 287.941 291.439 289.293 296.457 292.050 C 301.476 294.808 306.136 298.193 310.457 301.949 C 314.777 305.705 318.789 309.799 322.840 313.843 C 326.891 317.887 330.947 321.927 334.974 325.996 C 339.001 330.065 342.941 334.227 346.541 338.679 C 350.141 343.130 353.725 347.629 357.988 351.452 C 362.251 355.275 367.124 358.452 372.453 360.548 C 377.782 362.645 383.763 363.158 389.286 361.643 C 394.810 360.127 399.911 357.242 404.358 353.635 C 408.806 350.029 412.354 345.469 415.977 341.037 C 419.600 336.605 423.575 332.474 427.606 328.410 C 431.638 324.346 435.693 320.306 439.742 316.259 C 443.791 312.212 447.790 308.110 452.010 304.242 C 456.230 300.374 460.923 297.028 465.985 294.353 C 471.046 291.678 476.304 289.378 481.705 287.480 C 487.105 285.582 492.522 283.598 498.173 282.677 C 503.824 281.757 509.583 281.797 515.300 281.505 C 521.017 281.213 526.738 281.763 532.457 282.016 C 538.175 282.268 543.813 283.414 549.285 285.096 C 554.757 286.778 560.432 287.898 565.659 290.237 C 570.886 292.577 575.424 296.186 579.971 299.664 C 584.519 303.141 588.832 306.924 592.857 310.994 C 596.883 315.063 600.656 319.426 603.611 324.329 C 606.566 329.232 609.214 334.312 612.111 339.250 C 615.007 344.188 617.153 349.577 617.944 355.246 C 618.735 360.916 620.210 366.486 620.707 372.189 C 621.205 377.893 621.108 383.634 620.909 389.355 C 620.711 395.076 619.281 400.665 618.426 406.326 C 617.572 411.986 616.547 417.665 614.176 422.876 C 611.805 428.087 609.046 433.121 605.927 437.922 C 602.808 442.722 599.293 447.271 595.331 451.404 C 591.370 455.537 587.032 459.312 582.352 462.608 C 577.671 465.905 572.709 468.786 567.618 471.404 C 562.527 474.021 557.460 476.793 551.985 478.466 C 546.509 480.140 540.718 480.438 535.108 481.576 C 529.498 482.715 523.755 483.052 518.032 482.943 C 512.308 482.835 506.690 481.592 501.044 480.644 C 495.399 479.696 489.688 478.931 484.347 476.873 C 479.005 474.814 473.609 472.823 468.611 470.029 C 463.614 467.236 458.884 463.990 454.189 460.715 C 449.494 457.440 445.054 453.762 441.290 449.448 C 437.526 445.134 434.059 440.569 430.224 436.318 C 426.390 432.068 422.359 427.753 420.469 422.343" stroke="#22263D" stroke-width="47.944" stroke-linecap="butt" stroke-linejoin="round" fill="none"/>
</svg>
