<svg xmlns="http://www.w3.org/2000/svg" viewBox="0 0 1449 706" fill="none">
  <rect width="1449" height="706" fill="#FFFFFF"/>
  <path d="M 633.165 459.975 L 606.777 491.269 L 583.269 516.892 L 560.642 539.837 L 542.038 557.041 L 524.000 570.820 L 503.000 584.704 L 479.000 597.240 L 459.000 605.551 L 435.000 613.041 L 417.000 616.999 L 386.000 621.046 L 358.000 623.480 L 337.000 621.964 L 334.000 621.079 L 328.000 620.986 L 304.000 617.829 L 277.000 611.824 L 251.000 602.972 L 222.000 589.227 L 199.000 574.852 L 185.000 564.321 L 161.002 542.971 L 144.652 525.000 L 127.153 501.000 L 114.273 479.000 L 106.274 462.000 L 98.301 441.000 L 93.180 422.000 L 88.153 393.000 L 84.005 354.000 L 86.532 325.000 L 90.680 296.000 L 97.125 269.000 L 103.301 251.000 L 112.301 231.000 L 120.529 216.000 L 132.175 198.000 L 142.153 185.000 L 154.029 171.000 L 171.500 153.529 L 200.500 130.303 L 221.500 117.528 L 233.500 111.153 L 262.500 98.805 L 291.500 90.562 L 324.500 85.166 L 350.500 82.879 L 353.318 82.186 L 354.532 80.035 L 355.502 82.036 L 367.500 82.078 L 412.500 87.288 L 442.500 94.056 L 475.500 106.242 L 491.500 113.913 L 519.500 130.468 L 535.500 142.344 L 560.500 163.231 L 585.471 188.054 L 668.559 288.595 L 675.500 295.657 L 679.500 298.555 L 723.500 314.789 L 765.500 299.741 L 769.500 298.041 L 772.500 295.657 L 779.441 288.595 L 862.529 188.054 L 887.500 163.231 L 912.500 142.344 L 927.500 131.127 L 956.500 113.913 L 972.500 106.242 L 990.500 99.140 L 1005.500 94.056 L 1025.500 89.321 L 1059.500 84.112 L 1080.500 82.078 L 1093.468 82.035 L 1123.500 85.166 L 1156.500 90.562 L 1185.500 98.805 L 1200.500 104.681 L 1214.500 111.153 L 1229.500 119.272 L 1247.500 130.303 L 1265.500 144.153 L 1276.500 153.529 L 1294.850 172.000 L 1312.971 194.000 L 1323.726 210.000 L 1335.699 231.000 L 1344.699 251.000 L 1350.875 269.000 L 1357.320 296.000 L 1361.468 325.000 L 1363.995 354.000 L 1359.847 393.000 L 1354.820 422.000 L 1349.699 441.000 L 1341.726 462.000 L 1333.727 479.000 L 1320.847 501.000 L 1303.348 525.000 L 1286.998 542.971 L 1263.000 564.321 L 1249.000 574.852 L 1226.000 589.227 L 1197.000 602.972 L 1171.000 611.824 L 1144.000 617.829 L 1120.000 620.986 L 1114.000 621.079 L 1111.000 621.964 L 1090.000 623.480 L 1062.000 621.046 L 1031.000 616.999 L 1013.000 613.041 L 989.000 605.551 L 969.000 597.240 L 945.000 584.704 L 924.000 570.820 L 905.962 557.041 L 887.358 539.837 L 864.731 516.892 L 841.223 491.269 L 814.835 459.975" stroke="#22263D" stroke-width="117" stroke-linecap="butt" stroke-linejoin="round" fill="none"/>
</svg>
