<svg xmlns="http://www.w3.org/2000/svg" viewBox="0 0 1449 706" fill="none">
  <rect width="1449" height="706" fill="#FFFFFF"/>
  <path d="M 633.165 459.975 L 632.577 460.674 L 631.807 461.635 L 630.889 462.668 L 629.881 463.726 L 628.949 464.807 L 628.171 465.911 L 627.377 467.035 L 626.395 468.175 L 625.283 469.330 L 624.178 470.504 L 623.245 471.699 L 622.455 472.913 L 621.495 474.141 L 620.336 475.380 L 619.140 476.633 L 618.021 477.903 L 616.972 479.188 L 615.858 480.485 L 614.736 481.795 L 613.682 483.118 L 612.633 484.453 L 611.558 485.799 L 610.374 487.152 L 609.111 488.514 L 607.909 489.887 L 606.777 491.269 L 605.559 492.658 L 604.244 494.052 L 602.923 495.453 L 601.688 496.862 L 600.528 498.278 L 599.285 499.697 L 597.944 501.120 L 596.575 502.545 L 595.201 503.974 L 593.826 505.405 L 592.448 506.839 L 591.069 508.274 L 589.690 509.709 L 588.312 511.146 L 586.960 512.582 L 585.702 514.020 L 584.524 515.458 L 583.269 516.892 L 581.923 518.321 L 580.554 519.748 L 579.186 521.170 L 577.822 522.588 L 576.462 524.001 L 575.107 525.409 L 573.756 526.808 L 572.412 528.176 L 571.073 529.443 L 569.741 530.624 L 568.416 531.874 L 567.099 533.210 L 565.789 534.561 L 564.488 535.904 L 563.197 537.236 L 561.914 538.555 L 560.642 539.837 L 559.380 541.013 L 558.129 542.097 L 556.889 543.246 L 555.662 544.475 L 554.446 545.711 L 553.244 546.910 L 552.055 547.998 L 550.880 548.992 L 549.720 550.045 L 548.574 551.149 L 547.443 552.166 L 546.329 553.087 L 545.230 554.068 L 544.149 555.120 L 543.084 556.150 L 542.038 557.041 L 541.010 557.739 L 540.000 558.414 L 539.000 559.250 L 538.000 560.203 L 537.000 561.156 L 536.000 561.993 L 535.000 562.657 L 534.000 563.317 L 533.000 564.100 L 532.000 564.814 L 531.000 565.398 L 530.000 566.139 L 529.000 567.041 L 528.000 567.874 L 527.000 568.539 L 526.000 569.203 L 525.000 570.011 L 524.000 570.820 L 523.000 571.484 L 522.000 572.145 L 521.000 572.929 L 520.000 573.645 L 519.000 574.226 L 518.000 574.917 L 517.000 575.607 L 516.000 576.189 L 515.000 576.905 L 514.000 577.688 L 513.000 578.323 L 512.000 578.867 L 511.000 579.478 L 510.000 580.168 L 509.000 580.804 L 508.000 581.440 L 507.000 582.132 L 506.000 582.768 L 505.000 583.405 L 504.000 584.095 L 503.000 584.704 L 502.000 585.220 L 501.000 585.714 L 500.000 586.230 L 499.000 586.840 L 498.000 587.529 L 497.000 588.141 L 496.000 588.683 L 495.000 589.268 L 494.000 589.837 L 493.000 590.250 L 492.000 590.671 L 491.000 591.233 L 490.000 591.824 L 489.000 592.332 L 488.000 592.832 L 487.000 593.315 L 486.000 593.813 L 485.000 594.297 L 484.000 594.795 L 483.000 595.279 L 482.000 595.777 L 481.000 596.261 L 480.000 596.760 L 479.000 597.240 L 478.000 597.689 L 477.000 597.983 L 476.000 598.300 L 475.000 598.844 L 474.000 599.403 L 473.000 599.823 L 472.000 600.210 L 471.000 600.635 L 470.000 600.926 L 469.000 601.219 L 468.000 601.669 L 467.000 602.150 L 466.000 602.650 L 465.000 603.134 L 464.000 603.609 L 463.000 603.997 L 462.000 604.369 L 461.000 604.741 L 460.000 605.125 L 459.000 605.551 L 458.000 605.843 L 457.000 606.135 L 456.000 606.559 L 455.000 606.918 L 454.000 607.195 L 453.000 607.463 L 452.000 607.806 L 451.000 608.151 L 450.000 608.418 L 449.000 608.695 L 448.000 609.055 L 447.000 609.478 L 446.000 609.746 L 445.000 609.943 L 444.000 610.265 L 443.000 610.608 L 442.000 610.874 L 441.000 611.127 L 440.000 611.393 L 439.000 611.738 L 438.000 612.086 L 437.000 612.377 L 436.000 612.722 L 435.000 613.041 L 434.000 613.186 L 433.000 613.241 L 432.000 613.387 L 431.000 613.705 L 430.000 614.049 L 429.000 614.316 L 428.000 614.568 L 427.000 614.808 L 426.000 615.031 L 425.000 615.152 L 424.000 615.203 L 423.000 615.325 L 422.000 615.550 L 421.000 615.815 L 420.000 616.162 L 419.000 616.508 L 418.000 616.774 L 417.000 616.999 L 416.000 617.121 L 415.000 617.172 L 414.000 617.292 L 413.000 617.491 L 412.000 617.636 L 411.000 617.781 L 410.000 617.980 L 409.000 618.098 L 408.000 618.125 L 407.000 618.151 L 406.000 618.272 L 405.000 618.496 L 404.000 618.735 L 403.000 618.959 L 402.000 619.080 L 401.000 619.107 L 400.000 619.134 L 399.000 619.252 L 398.000 619.452 L 397.000 619.598 L 396.000 619.743 L 395.000 619.943 L 394.000 620.062 L 393.000 620.089 L 392.000 620.116 L 391.000 620.235 L 390.000 620.435 L 389.000 620.581 L 388.000 620.727 L 387.000 620.927 L 386.000 621.046 L 385.000 621.072 L 384.000 621.072 L 383.000 621.073 L 382.000 621.098 L 381.000 621.220 L 380.000 621.445 L 379.000 621.685 L 378.000 621.910 L 377.000 622.032 L 376.000 622.057 L 375.000 622.058 L 374.000 622.057 L 373.000 622.058 L 372.000 622.083 L 371.000 622.205 L 370.000 622.431 L 369.000 622.671 L 368.000 622.897 L 367.000 623.019 L 366.000 623.044 L 365.000 623.045 L 364.000 623.044 L 363.000 623.043 L 362.000 623.045 L 361.000 623.070 L 360.000 623.190 L 359.000 623.387 L 358.000 623.480 L 357.000 623.385 L 356.000 623.186 L 355.000 623.065 L 354.000 623.037 L 353.000 623.034 L 352.000 623.033 L 351.000 623.032 L 350.000 623.031 L 349.000 623.028 L 348.000 622.998 L 347.000 622.849 L 346.000 622.528 L 345.000 622.207 L 344.000 622.058 L 343.000 622.028 L 342.000 622.025 L 341.000 622.025 L 340.000 622.024 L 339.000 622.023 L 338.000 622.018 L 337.000 621.964 L 336.000 621.721 L 335.000 621.321 L 334.000 621.079 L 333.000 621.024 L 332.000 621.019 L 331.000 621.019 L 330.000 621.018 L 329.000 621.015 L 328.000 620.986 L 327.000 620.837 L 326.000 620.516 L 325.000 620.195 L 324.000 620.047 L 323.000 620.017 L 322.000 620.015 L 321.000 620.010 L 320.000 619.955 L 319.000 619.713 L 318.000 619.314 L 317.000 619.071 L 316.000 619.017 L 315.000 619.012 L 314.000 619.012 L 313.000 619.009 L 312.000 618.979 L 311.000 618.831 L 310.000 618.510 L 309.000 618.190 L 308.000 618.041 L 307.000 618.012 L 306.000 618.007 L 305.000 617.977 L 304.000 617.829 L 303.000 617.508 L 302.000 617.186 L 301.000 617.010 L 300.000 616.860 L 299.000 616.656 L 298.000 616.507 L 297.000 616.357 L 296.000 616.126 L 295.000 615.856 L 294.000 615.509 L 293.000 615.186 L 292.000 615.035 L 291.000 614.979 L 290.000 614.853 L 289.000 614.627 L 288.000 614.382 L 287.000 614.128 L 286.000 613.882 L 285.000 613.628 L 284.000 613.382 L 283.000 613.128 L 282.000 612.881 L 281.000 612.628 L 280.000 612.383 L 279.000 612.154 L 278.000 612.002 L 277.000 611.824 L 276.000 611.474 L 275.000 611.031 L 274.000 610.656 L 273.000 610.383 L 272.000 610.127 L 271.000 609.880 L 270.000 609.624 L 269.000 609.353 L 268.000 609.003 L 267.000 608.651 L 266.000 608.352 L 265.000 607.976 L 264.000 607.530 L 263.000 607.153 L 262.000 606.854 L 261.000 606.502 L 260.000 606.150 L 259.000 605.854 L 258.000 605.502 L 257.000 605.150 L 256.000 604.852 L 255.000 604.475 L 254.000 604.029 L 253.000 603.652 L 252.000 603.351 L 251.000 602.972 L 250.000 602.499 L 249.000 602.004 L 248.000 601.531 L 247.000 601.152 L 246.000 600.851 L 245.000 600.472 L 244.000 599.999 L 243.000 599.503 L 242.000 599.028 L 241.000 598.624 L 240.000 598.228 L 239.000 597.743 L 238.000 597.230 L 237.000 596.653 L 236.000 596.176 L 235.000 595.826 L 234.000 595.348 L 233.000 594.770 L 232.000 594.230 L 231.000 593.626 L 230.000 593.055 L 229.000 592.626 L 228.000 592.227 L 227.000 591.745 L 226.000 591.254 L 225.000 590.747 L 224.000 590.254 L 223.000 589.745 L 222.000 589.227 L 221.000 588.624 L 220.000 588.028 L 219.000 587.501 L 218.000 586.974 L 217.000 586.377 L 216.000 585.772 L 215.000 585.229 L 214.000 584.621 L 213.000 583.998 L 212.000 583.352 L 211.000 582.648 L 210.000 582.000 L 209.000 581.352 L 208.000 580.651 L 207.000 580.027 L 206.000 579.473 L 205.000 578.850 L 204.000 578.148 L 203.000 577.500 L 202.000 576.852 L 201.000 576.148 L 200.000 575.500 L 199.000 574.852 L 198.000 574.148 L 197.000 573.498 L 196.000 572.823 L 195.000 571.998 L 194.000 571.150 L 193.000 570.381 L 192.000 569.650 L 191.000 568.998 L 190.000 568.321 L 189.000 567.471 L 188.000 566.529 L 187.000 565.680 L 186.000 565.000 L 185.000 564.321 L 184.000 563.471 L 183.000 562.527 L 182.000 561.650 L 181.000 560.852 L 180.000 560.000 L 179.000 559.148 L 178.000 558.352 L 177.000 557.500 L 176.000 556.648 L 175.000 555.850 L 174.000 554.971 L 173.000 553.998 L 172.000 553.000 L 171.000 552.000 L 170.000 551.002 L 169.000 550.029 L 168.000 549.150 L 167.000 548.350 L 166.000 547.471 L 165.000 546.500 L 164.000 545.529 L 163.000 544.650 L 162.000 543.850 L 161.002 542.971 L 160.029 541.998 L 159.150 541.000 L 158.350 540.000 L 157.471 539.000 L 156.498 538.000 L 155.500 537.000 L 154.500 536.000 L 153.500 535.000 L 152.502 534.000 L 151.529 533.000 L 150.650 532.000 L 149.852 531.000 L 149.000 530.000 L 148.148 529.000 L 147.350 528.000 L 146.473 527.000 L 145.527 526.000 L 144.652 525.000 L 143.879 524.000 L 143.121 523.000 L 142.350 522.000 L 141.502 521.000 L 140.677 520.000 L 140.000 519.000 L 139.325 518.000 L 138.527 517.000 L 137.798 516.000 L 137.200 515.000 L 136.446 514.000 L 135.554 513.000 L 134.800 512.000 L 134.202 511.000 L 133.473 510.000 L 132.675 509.000 L 132.002 508.000 L 131.352 507.000 L 130.648 506.000 L 130.000 505.000 L 129.350 504.000 L 128.621 503.000 L 127.879 502.000 L 127.153 501.000 L 126.529 500.000 L 126.000 499.000 L 125.471 498.000 L 124.850 497.000 L 124.148 496.000 L 123.500 495.000 L 122.852 494.000 L 122.150 493.000 L 121.529 492.000 L 121.002 491.000 L 120.498 490.000 L 119.973 489.000 L 119.377 488.000 L 118.771 487.000 L 118.229 486.000 L 117.623 485.000 L 117.027 484.000 L 116.502 483.000 L 115.998 482.000 L 115.473 481.000 L 114.877 480.000 L 114.273 479.000 L 113.756 478.000 L 113.246 477.000 L 112.754 476.000 L 112.246 475.000 L 111.756 474.000 L 111.273 473.000 L 110.877 472.000 L 110.473 471.000 L 110.000 470.000 L 109.527 469.000 L 109.123 468.000 L 108.727 467.000 L 108.244 466.000 L 107.754 465.000 L 107.246 464.000 L 106.756 463.000 L 106.274 462.000 L 105.879 461.000 L 105.502 460.000 L 105.148 459.000 L 104.852 458.000 L 104.498 457.000 L 104.121 456.000 L 103.729 455.000 L 103.271 454.000 L 102.879 453.000 L 102.500 452.000 L 102.121 451.000 L 101.729 450.000 L 101.271 449.000 L 100.879 448.000 L 100.502 447.000 L 100.148 446.000 L 99.852 445.000 L 99.498 444.000 L 99.121 443.000 L 98.731 442.000 L 98.301 441.000 L 98.027 440.000 L 97.825 439.000 L 97.500 438.000 L 97.177 437.000 L 97.000 436.000 L 96.823 435.000 L 96.498 434.000 L 96.148 433.000 L 95.852 432.000 L 95.502 431.000 L 95.180 430.000 L 95.029 429.000 L 94.971 428.000 L 94.820 427.000 L 94.498 426.000 L 94.148 425.000 L 93.852 424.000 L 93.502 423.000 L 93.180 422.000 L 93.031 421.000 L 93.000 420.000 L 92.969 419.000 L 92.820 418.000 L 92.500 417.000 L 92.179 416.000 L 92.027 415.000 L 91.944 414.000 L 91.700 413.000 L 91.300 412.000 L 91.056 411.000 L 90.975 410.000 L 90.848 409.000 L 90.621 408.000 L 90.379 407.000 L 90.152 406.000 L 90.027 405.000 L 89.973 404.000 L 89.848 403.000 L 89.621 402.000 L 89.379 401.000 L 89.153 400.000 L 89.029 399.000 L 89.000 398.000 L 88.971 397.000 L 88.847 396.000 L 88.621 395.000 L 88.379 394.000 L 88.153 393.000 L 88.029 392.000 L 88.002 391.000 L 87.998 390.000 L 87.971 389.000 L 87.847 388.000 L 87.621 387.000 L 87.379 386.000 L 87.153 385.000 L 87.029 384.000 L 87.000 383.000 L 86.971 382.000 L 86.850 381.000 L 86.648 380.000 L 86.500 379.000 L 86.352 378.000 L 86.150 377.000 L 86.029 376.000 L 86.002 375.000 L 85.998 374.000 L 85.971 373.000 L 85.850 372.000 L 85.650 371.000 L 85.527 370.000 L 85.473 369.000 L 85.350 368.000 L 85.150 367.000 L 85.029 366.000 L 85.000 365.000 L 84.971 364.000 L 84.850 363.000 L 84.650 362.000 L 84.529 361.000 L 84.502 360.000 L 84.498 359.000 L 84.471 358.000 L 84.350 357.000 L 84.150 356.000 L 84.029 355.000 L 84.005 354.000 L 84.029 353.000 L 84.150 352.000 L 84.350 351.000 L 84.471 350.000 L 84.498 349.000 L 84.500 348.000 L 84.500 347.000 L 84.500 346.000 L 84.500 345.000 L 84.502 344.000 L 84.532 343.000 L 84.680 342.000 L 85.000 341.000 L 85.320 340.000 L 85.468 339.000 L 85.498 338.000 L 85.500 337.000 L 85.500 336.000 L 85.502 335.000 L 85.529 334.000 L 85.653 333.000 L 85.879 332.000 L 86.121 331.000 L 86.347 330.000 L 86.471 329.000 L 86.498 328.000 L 86.500 327.000 L 86.502 326.000 L 86.532 325.000 L 86.680 324.000 L 87.000 323.000 L 87.320 322.000 L 87.468 321.000 L 87.498 320.000 L 87.502 319.000 L 87.532 318.000 L 87.680 317.000 L 88.000 316.000 L 88.320 315.000 L 88.468 314.000 L 88.498 313.000 L 88.500 312.000 L 88.505 311.000 L 88.559 310.000 L 88.801 309.000 L 89.199 308.000 L 89.441 307.000 L 89.495 306.000 L 89.500 305.000 L 89.502 304.000 L 89.532 303.000 L 89.680 302.000 L 90.000 301.000 L 90.320 300.000 L 90.469 299.000 L 90.500 298.000 L 90.531 297.000 L 90.680 296.000 L 91.002 295.000 L 91.352 294.000 L 91.648 293.000 L 91.998 292.000 L 92.320 291.000 L 92.468 290.000 L 92.498 289.000 L 92.504 288.000 L 92.559 287.000 L 92.801 286.000 L 93.200 285.000 L 93.444 284.000 L 93.525 283.000 L 93.652 282.000 L 93.879 281.000 L 94.123 280.000 L 94.379 279.000 L 94.650 278.000 L 95.000 277.000 L 95.350 276.000 L 95.621 275.000 L 95.877 274.000 L 96.123 273.000 L 96.377 272.000 L 96.623 271.000 L 96.877 270.000 L 97.125 269.000 L 97.406 268.000 L 97.773 267.000 L 98.227 266.000 L 98.594 265.000 L 98.877 264.000 L 99.150 263.000 L 99.500 262.000 L 99.850 261.000 L 100.123 260.000 L 100.406 259.000 L 100.774 258.000 L 101.229 257.000 L 101.623 256.000 L 102.025 255.000 L 102.471 254.000 L 102.823 253.000 L 103.027 252.000 L 103.301 251.000 L 103.731 250.000 L 104.123 249.000 L 104.527 248.000 L 105.000 247.000 L 105.473 246.000 L 105.879 245.000 L 106.300 244.000 L 106.877 243.000 L 107.446 242.000 L 107.875 241.000 L 108.271 240.000 L 108.729 239.000 L 109.123 238.000 L 109.527 237.000 L 110.002 236.000 L 110.500 235.000 L 110.998 234.000 L 111.473 233.000 L 111.879 232.000 L 112.301 231.000 L 112.879 230.000 L 113.473 229.000 L 113.998 228.000 L 114.500 227.000 L 115.000 226.000 L 115.500 225.000 L 116.002 224.000 L 116.529 223.000 L 117.150 222.000 L 117.850 221.000 L 118.471 220.000 L 118.998 219.000 L 119.500 218.000 L 120.002 217.000 L 120.529 216.000 L 121.150 215.000 L 121.852 214.000 L 122.498 213.000 L 123.121 212.000 L 123.729 211.000 L 124.274 210.000 L 124.906 209.000 L 125.623 208.000 L 126.348 207.000 L 126.973 206.000 L 127.527 205.000 L 128.150 204.000 L 128.852 203.000 L 129.500 202.000 L 130.148 201.000 L 130.852 200.000 L 131.502 199.000 L 132.175 198.000 L 132.973 197.000 L 133.702 196.000 L 134.298 195.000 L 135.029 194.000 L 135.852 193.000 L 136.621 192.000 L 137.379 191.000 L 138.150 190.000 L 139.000 189.000 L 139.850 188.000 L 140.621 187.000 L 141.379 186.000 L 142.153 185.000 L 143.029 184.000 L 144.000 183.000 L 144.971 182.000 L 145.847 181.000 L 146.621 180.000 L 147.379 179.000 L 148.150 178.000 L 149.000 177.000 L 149.852 176.000 L 150.648 175.000 L 151.500 174.000 L 152.352 173.000 L 153.150 172.000 L 154.029 171.000 L 155.002 170.000 L 156.000 169.000 L 157.000 168.000 L 158.000 167.000 L 159.000 166.000 L 159.998 165.000 L 160.971 164.000 L 161.850 163.002 L 162.650 162.029 L 163.529 161.150 L 164.502 160.350 L 165.500 159.471 L 166.500 158.498 L 167.500 157.500 L 168.500 156.500 L 169.500 155.500 L 170.500 154.502 L 171.500 153.529 L 172.500 152.650 L 173.500 151.850 L 174.500 150.973 L 175.500 150.027 L 176.500 149.153 L 177.500 148.379 L 178.500 147.621 L 179.500 146.848 L 180.500 145.973 L 181.500 145.027 L 182.500 144.153 L 183.500 143.379 L 184.500 142.623 L 185.500 141.877 L 186.500 141.123 L 187.500 140.377 L 188.500 139.621 L 189.500 138.850 L 190.500 138.000 L 191.500 137.150 L 192.500 136.379 L 193.500 135.621 L 194.500 134.852 L 195.500 134.029 L 196.500 133.298 L 197.500 132.700 L 198.500 131.946 L 199.500 131.054 L 200.500 130.303 L 201.500 129.731 L 202.500 129.124 L 203.500 128.527 L 204.500 128.000 L 205.500 127.471 L 206.500 126.850 L 207.500 126.148 L 208.500 125.500 L 209.500 124.852 L 210.500 124.149 L 211.500 123.503 L 212.500 122.879 L 213.500 122.272 L 214.500 121.729 L 215.500 121.122 L 216.500 120.501 L 217.500 119.879 L 218.500 119.272 L 219.500 118.729 L 220.500 118.124 L 221.500 117.528 L 222.500 117.001 L 223.500 116.474 L 224.500 115.877 L 225.500 115.274 L 226.500 114.759 L 227.500 114.274 L 228.500 113.878 L 229.500 113.471 L 230.500 112.969 L 231.500 112.353 L 232.500 111.678 L 233.500 111.153 L 234.500 110.730 L 235.500 110.245 L 236.500 109.757 L 237.500 109.275 L 238.500 108.878 L 239.500 108.474 L 240.500 107.999 L 241.500 107.503 L 242.500 107.030 L 243.500 106.649 L 244.500 106.322 L 245.500 105.824 L 246.500 105.179 L 247.500 104.681 L 248.500 104.356 L 249.500 103.999 L 250.500 103.623 L 251.500 103.230 L 252.500 102.773 L 253.500 102.381 L 254.500 102.004 L 255.500 101.650 L 256.500 101.352 L 257.500 100.973 L 258.500 100.502 L 259.500 100.029 L 260.500 99.626 L 261.500 99.233 L 262.500 98.805 L 263.500 98.557 L 264.500 98.449 L 265.500 98.202 L 266.500 97.799 L 267.500 97.503 L 268.500 97.205 L 269.500 96.772 L 270.500 96.382 L 271.500 96.008 L 272.500 95.681 L 273.500 95.503 L 274.500 95.326 L 275.500 95.004 L 276.500 94.679 L 277.500 94.477 L 278.500 94.206 L 279.500 93.800 L 280.500 93.504 L 281.500 93.208 L 282.500 92.803 L 283.500 92.534 L 284.500 92.357 L 285.500 92.126 L 286.500 91.884 L 287.500 91.653 L 288.500 91.476 L 289.500 91.207 L 290.500 90.806 L 291.500 90.562 L 292.500 90.481 L 293.500 90.354 L 294.500 90.128 L 295.500 89.886 L 296.500 89.659 L 297.500 89.534 L 298.500 89.480 L 299.500 89.355 L 300.500 89.129 L 301.500 88.887 L 302.500 88.659 L 303.500 88.506 L 304.500 88.332 L 305.500 88.009 L 306.500 87.689 L 307.500 87.539 L 308.500 87.483 L 309.500 87.360 L 310.500 87.159 L 311.500 87.011 L 312.500 86.863 L 313.500 86.662 L 314.500 86.539 L 315.500 86.485 L 316.500 86.362 L 317.500 86.163 L 318.500 86.040 L 319.500 85.987 L 320.500 85.864 L 321.500 85.662 L 322.500 85.515 L 323.500 85.367 L 324.500 85.166 L 325.500 85.045 L 326.500 85.019 L 327.500 85.015 L 328.500 84.988 L 329.500 84.868 L 330.500 84.666 L 331.500 84.519 L 332.500 84.372 L 333.500 84.170 L 334.500 84.050 L 335.500 84.023 L 336.500 84.020 L 337.500 83.993 L 338.500 83.873 L 339.500 83.672 L 340.500 83.524 L 341.500 83.377 L 342.500 83.176 L 343.500 83.056 L 344.500 83.029 L 345.500 83.028 L 346.500 83.028 L 347.500 83.029 L 348.500 83.028 L 349.500 83.001 L 350.500 82.879 L 351.498 82.653 L 352.468 82.412 L 353.318 82.186 L 354.532 80.035 L 355.502 82.036 L 356.500 82.037 L 357.500 82.038 L 358.500 82.039 L 359.500 82.040 L 360.500 82.041 L 361.500 82.042 L 362.500 82.043 L 363.500 82.044 L 364.500 82.045 L 365.500 82.046 L 366.500 82.050 L 367.500 82.078 L 368.500 82.202 L 369.500 82.430 L 370.500 82.673 L 371.500 82.901 L 372.500 83.025 L 373.500 83.054 L 374.500 83.057 L 375.500 83.059 L 376.500 83.060 L 377.500 83.064 L 378.500 83.093 L 379.500 83.217 L 380.500 83.446 L 381.500 83.689 L 382.500 83.917 L 383.500 84.042 L 384.500 84.071 L 385.500 84.075 L 386.500 84.077 L 387.500 84.081 L 388.500 84.112 L 389.500 84.262 L 390.500 84.584 L 391.500 84.907 L 392.500 85.057 L 393.500 85.088 L 394.500 85.092 L 395.500 85.097 L 396.500 85.126 L 397.500 85.251 L 398.500 85.480 L 399.500 85.724 L 400.500 85.953 L 401.500 86.079 L 402.500 86.108 L 403.500 86.115 L 404.500 86.145 L 405.500 86.268 L 406.500 86.473 L 407.500 86.623 L 408.500 86.774 L 409.500 86.979 L 410.500 87.105 L 411.500 87.162 L 412.500 87.288 L 413.500 87.493 L 414.500 87.646 L 415.500 87.824 L 416.500 88.150 L 417.500 88.476 L 418.500 88.654 L 419.500 88.808 L 420.500 89.015 L 421.500 89.167 L 422.500 89.321 L 423.500 89.555 L 424.500 89.828 L 425.500 90.179 L 426.500 90.508 L 427.500 90.687 L 428.500 90.841 L 429.500 91.049 L 430.500 91.201 L 431.500 91.353 L 432.500 91.564 L 433.500 91.743 L 434.500 92.016 L 435.500 92.424 L 436.500 92.698 L 437.500 92.879 L 438.500 93.115 L 439.500 93.362 L 440.500 93.598 L 441.500 93.780 L 442.500 94.056 L 443.500 94.489 L 444.500 94.859 L 445.500 95.145 L 446.500 95.399 L 447.500 95.660 L 448.500 95.937 L 449.500 96.295 L 450.500 96.677 L 451.500 97.075 L 452.500 97.538 L 453.500 97.936 L 454.500 98.317 L 455.500 98.652 L 456.500 98.861 L 457.500 99.140 L 458.500 99.577 L 459.500 99.973 L 460.500 100.357 L 461.500 100.718 L 462.500 101.023 L 463.500 101.408 L 464.500 101.886 L 465.500 102.364 L 466.500 102.750 L 467.500 103.055 L 468.500 103.417 L 469.500 103.801 L 470.500 104.201 L 471.500 104.666 L 472.500 105.066 L 473.500 105.453 L 474.500 105.840 L 475.500 106.242 L 476.500 106.733 L 477.500 107.232 L 478.500 107.747 L 479.500 108.246 L 480.500 108.737 L 481.500 109.142 L 482.500 109.555 L 483.500 110.039 L 484.500 110.546 L 485.500 111.055 L 486.500 111.564 L 487.500 112.074 L 488.500 112.581 L 489.500 113.066 L 490.500 113.481 L 491.500 113.913 L 492.500 114.501 L 493.500 115.105 L 494.500 115.642 L 495.500 116.180 L 496.500 116.786 L 497.500 117.400 L 498.500 117.929 L 499.500 118.451 L 500.500 118.979 L 501.500 119.592 L 502.500 120.174 L 503.500 120.618 L 504.500 121.078 L 505.500 121.765 L 506.500 122.476 L 507.500 123.055 L 508.500 123.676 L 509.500 124.310 L 510.500 124.943 L 511.500 125.563 L 512.500 126.118 L 513.500 126.738 L 514.500 127.374 L 515.500 128.032 L 516.500 128.747 L 517.500 129.381 L 518.500 129.923 L 519.500 130.468 L 520.500 131.127 L 521.500 131.936 L 522.500 132.679 L 523.500 133.289 L 524.500 134.031 L 525.500 134.843 L 526.500 135.532 L 527.500 136.222 L 528.500 137.034 L 529.500 137.777 L 530.500 138.391 L 531.500 139.161 L 532.500 140.093 L 533.500 140.955 L 534.500 141.650 L 535.500 142.344 L 536.500 143.209 L 537.500 144.169 L 538.500 145.059 L 539.500 145.848 L 540.500 146.621 L 541.500 147.409 L 542.500 148.272 L 543.500 149.113 L 544.500 149.807 L 545.500 150.503 L 546.500 151.371 L 547.500 152.354 L 548.500 153.314 L 549.500 154.089 L 550.500 154.707 L 551.500 155.482 L 552.500 156.445 L 553.500 157.456 L 554.500 158.444 L 555.500 159.313 L 556.500 160.010 L 557.500 160.705 L 558.500 161.548 L 559.500 162.415 L 560.500 163.231 L 561.500 164.128 L 562.500 165.117 L 563.500 166.106 L 564.500 167.003 L 565.500 167.822 L 566.500 168.720 L 567.500 169.711 L 568.500 170.728 L 569.500 171.746 L 570.500 172.765 L 571.500 173.784 L 572.500 174.803 L 573.500 175.822 L 574.500 176.841 L 575.500 177.860 L 576.500 178.879 L 577.500 179.899 L 578.500 180.918 L 579.500 181.937 L 580.500 182.957 L 581.500 183.976 L 582.500 184.996 L 583.500 186.016 L 584.498 187.035 L 585.471 188.054 L 586.347 189.072 L 587.121 190.087 L 587.879 191.102 L 588.653 192.117 L 589.529 193.135 L 590.500 194.154 L 591.471 195.174 L 592.350 196.191 L 593.148 197.207 L 594.000 198.224 L 594.852 199.242 L 595.650 200.258 L 596.529 201.275 L 597.500 202.295 L 598.471 203.314 L 599.350 204.332 L 600.148 205.348 L 601.000 206.365 L 601.852 207.383 L 602.648 208.399 L 603.500 209.416 L 604.352 210.433 L 605.150 211.449 L 606.027 212.467 L 606.973 213.486 L 607.850 214.504 L 608.648 215.520 L 609.500 216.537 L 610.352 217.554 L 611.148 218.570 L 612.000 219.588 L 612.852 220.605 L 613.650 221.621 L 614.527 222.638 L 615.473 223.657 L 616.348 224.675 L 617.121 225.690 L 617.879 226.705 L 618.652 227.721 L 619.527 228.738 L 620.471 229.757 L 621.321 230.774 L 622.000 231.787 L 622.680 232.801 L 623.531 233.817 L 624.498 234.836 L 625.442 235.855 L 626.199 236.870 L 626.801 237.881 L 627.559 238.896 L 628.504 239.914 L 629.496 240.933 L 630.441 241.952 L 631.199 242.966 L 631.801 243.978 L 632.559 244.992 L 633.504 246.010 L 634.498 247.029 L 635.471 248.047 L 636.347 249.063 L 637.121 250.078 L 637.879 251.092 L 638.653 252.106 L 639.529 253.122 L 640.500 254.140 L 641.469 255.158 L 642.320 256.173 L 643.000 257.185 L 643.679 258.197 L 644.529 259.212 L 645.473 260.229 L 646.348 261.244 L 647.121 262.258 L 647.879 263.271 L 648.653 264.284 L 649.529 265.299 L 650.500 266.316 L 651.471 267.332 L 652.347 268.347 L 653.121 269.360 L 653.879 270.372 L 654.652 271.385 L 655.527 272.399 L 656.473 273.414 L 657.348 274.428 L 658.121 275.440 L 658.879 276.452 L 659.652 277.464 L 660.527 278.478 L 661.471 279.492 L 662.321 280.505 L 663.000 281.515 L 663.680 282.525 L 664.531 283.538 L 665.498 284.552 L 666.442 285.565 L 667.199 286.576 L 667.801 287.585 L 668.559 288.595 L 669.505 289.608 L 670.500 290.622 L 671.500 291.635 L 672.500 292.648 L 673.500 293.661 L 674.500 294.671 L 675.500 295.657 L 676.500 296.546 L 677.500 297.327 L 678.500 298.041 L 679.500 298.555 L 680.500 298.894 L 681.500 299.284 L 682.500 299.741 L 683.500 300.128 L 684.500 300.439 L 685.500 300.826 L 686.500 301.282 L 687.500 301.669 L 688.500 301.979 L 689.500 302.365 L 690.500 302.820 L 691.500 303.206 L 692.500 303.513 L 693.500 303.873 L 694.500 304.233 L 695.500 304.539 L 696.500 304.926 L 697.500 305.404 L 698.500 305.881 L 699.500 306.267 L 700.500 306.572 L 701.500 306.930 L 702.500 307.288 L 703.500 307.590 L 704.500 307.948 L 705.500 308.305 L 706.500 308.606 L 707.500 308.962 L 708.500 309.319 L 709.500 309.621 L 710.500 310.004 L 711.500 310.478 L 712.500 310.952 L 713.500 311.334 L 714.500 311.635 L 715.500 311.990 L 716.500 312.344 L 717.500 312.644 L 718.500 313.023 L 719.500 313.470 L 720.500 313.848 L 721.500 314.147 L 722.500 314.495 L 723.500 314.789 L 724.500 314.789 L 725.500 314.495 L 726.500 314.147 L 727.500 313.848 L 728.500 313.470 L 729.500 313.023 L 730.500 312.644 L 731.500 312.344 L 732.500 311.990 L 733.500 311.635 L 734.500 311.334 L 735.500 310.952 L 736.500 310.478 L 737.500 310.004 L 738.500 309.621 L 739.500 309.319 L 740.500 308.962 L 741.500 308.606 L 742.500 308.305 L 743.500 307.948 L 744.500 307.590 L 745.500 307.288 L 746.500 306.930 L 747.500 306.572 L 748.500 306.267 L 749.500 305.881 L 750.500 305.404 L 751.500 304.926 L 752.500 304.539 L 753.500 304.233 L 754.500 303.873 L 755.500 303.513 L 756.500 303.206 L 757.500 302.820 L 758.500 302.365 L 759.500 301.979 L 760.500 301.669 L 761.500 301.282 L 762.500 300.826 L 763.500 300.439 L 764.500 300.128 L 765.500 299.741 L 766.500 299.284 L 767.500 298.894 L 768.500 298.555 L 769.500 298.041 L 770.500 297.327 L 771.500 296.546 L 772.500 295.657 L 773.500 294.671 L 774.500 293.661 L 775.500 292.648 L 776.500 291.635 L 777.500 290.622 L 778.495 289.608 L 779.441 288.595 L 780.199 287.585 L 780.801 286.576 L 781.558 285.565 L 782.502 284.552 L 783.469 283.538 L 784.320 282.525 L 785.000 281.515 L 785.679 280.505 L 786.529 279.492 L 787.473 278.478 L 788.348 277.464 L 789.121 276.452 L 789.879 275.440 L 790.652 274.428 L 791.527 273.414 L 792.473 272.399 L 793.348 271.385 L 794.121 270.372 L 794.879 269.360 L 795.653 268.347 L 796.529 267.332 L 797.500 266.316 L 798.471 265.299 L 799.347 264.284 L 800.121 263.271 L 800.879 262.258 L 801.652 261.244 L 802.527 260.229 L 803.471 259.212 L 804.321 258.197 L 805.000 257.185 L 805.680 256.173 L 806.531 255.158 L 807.500 254.140 L 808.471 253.122 L 809.347 252.106 L 810.121 251.092 L 810.879 250.078 L 811.653 249.063 L 812.529 248.047 L 813.502 247.029 L 814.496 246.010 L 815.441 244.992 L 816.199 243.978 L 816.801 242.966 L 817.559 241.952 L 818.504 240.933 L 819.496 239.914 L 820.441 238.896 L 821.199 237.881 L 821.801 236.870 L 822.558 235.855 L 823.502 234.836 L 824.469 233.817 L 825.320 232.801 L 826.000 231.787 L 826.679 230.774 L 827.529 229.757 L 828.473 228.738 L 829.348 227.721 L 830.121 226.705 L 830.879 225.690 L 831.652 224.675 L 832.527 223.657 L 833.473 222.638 L 834.350 221.621 L 835.148 220.605 L 836.000 219.588 L 836.852 218.570 L 837.648 217.554 L 838.500 216.537 L 839.352 215.520 L 840.150 214.504 L 841.027 213.486 L 841.973 212.467 L 842.850 211.449 L 843.648 210.433 L 844.500 209.416 L 845.352 208.399 L 846.148 207.383 L 847.000 206.365 L 847.852 205.348 L 848.650 204.332 L 849.529 203.314 L 850.500 202.295 L 851.471 201.275 L 852.350 200.258 L 853.148 199.242 L 854.000 198.224 L 854.852 197.207 L 855.650 196.191 L 856.529 195.174 L 857.500 194.154 L 858.471 193.135 L 859.347 192.117 L 860.121 191.102 L 860.879 190.087 L 861.653 189.072 L 862.529 188.054 L 863.502 187.035 L 864.500 186.016 L 865.500 184.996 L 866.500 183.976 L 867.500 182.957 L 868.500 181.937 L 869.500 180.918 L 870.500 179.899 L 871.500 178.879 L 872.500 177.860 L 873.500 176.841 L 874.500 175.822 L 875.500 174.803 L 876.500 173.784 L 877.500 172.765 L 878.500 171.746 L 879.500 170.728 L 880.500 169.711 L 881.500 168.720 L 882.500 167.822 L 883.500 167.003 L 884.500 166.106 L 885.500 165.117 L 886.500 164.128 L 887.500 163.231 L 888.500 162.415 L 889.500 161.548 L 890.500 160.705 L 891.500 160.010 L 892.500 159.313 L 893.500 158.444 L 894.500 157.456 L 895.500 156.445 L 896.500 155.482 L 897.500 154.707 L 898.500 154.089 L 899.500 153.314 L 900.500 152.354 L 901.500 151.371 L 902.500 150.503 L 903.500 149.807 L 904.500 149.113 L 905.500 148.272 L 906.500 147.409 L 907.500 146.621 L 908.500 145.848 L 909.500 145.059 L 910.500 144.169 L 911.500 143.209 L 912.500 142.344 L 913.500 141.650 L 914.500 140.955 L 915.500 140.093 L 916.500 139.161 L 917.500 138.391 L 918.500 137.777 L 919.500 137.034 L 920.500 136.222 L 921.500 135.532 L 922.500 134.843 L 923.500 134.031 L 924.500 133.289 L 925.500 132.679 L 926.500 131.936 L 927.500 131.127 L 928.500 130.468 L 929.500 129.923 L 930.500 129.381 L 931.500 128.747 L 932.500 128.032 L 933.500 127.374 L 934.500 126.738 L 935.500 126.118 L 936.500 125.563 L 937.500 124.943 L 938.500 124.310 L 939.500 123.676 L 940.500 123.055 L 941.500 122.476 L 942.500 121.765 L 943.500 121.078 L 944.500 120.618 L 945.500 120.174 L 946.500 119.592 L 947.500 118.979 L 948.500 118.451 L 949.500 117.929 L 950.500 117.400 L 951.500 116.786 L 952.500 116.180 L 953.500 115.642 L 954.500 115.105 L 955.500 114.501 L 956.500 113.913 L 957.500 113.481 L 958.500 113.066 L 959.500 112.581 L 960.500 112.074 L 961.500 111.564 L 962.500 111.055 L 963.500 110.546 L 964.500 110.039 L 965.500 109.555 L 966.500 109.142 L 967.500 108.737 L 968.500 108.246 L 969.500 107.747 L 970.500 107.232 L 971.500 106.733 L 972.500 106.242 L 973.500 105.840 L 974.500 105.453 L 975.500 105.066 L 976.500 104.666 L 977.500 104.201 L 978.500 103.801 L 979.500 103.417 L 980.500 103.055 L 981.500 102.750 L 982.500 102.364 L 983.500 101.886 L 984.500 101.408 L 985.500 101.023 L 986.500 100.718 L 987.500 100.357 L 988.500 99.973 L 989.500 99.577 L 990.500 99.140 L 991.500 98.861 L 992.500 98.652 L 993.500 98.317 L 994.500 97.936 L 995.500 97.538 L 996.500 97.075 L 997.500 96.677 L 998.500 96.295 L 999.500 95.937 L 1000.500 95.660 L 1001.500 95.399 L 1002.500 95.145 L 1003.500 94.859 L 1004.500 94.489 L 1005.500 94.056 L 1006.500 93.780 L 1007.500 93.598 L 1008.500 93.362 L 1009.500 93.115 L 1010.500 92.879 L 1011.500 92.698 L 1012.500 92.424 L 1013.500 92.016 L 1014.500 91.743 L 1015.500 91.564 L 1016.500 91.353 L 1017.500 91.201 L 1018.500 91.049 L 1019.500 90.841 L 1020.500 90.687 L 1021.500 90.508 L 1022.500 90.179 L 1023.500 89.828 L 1024.500 89.555 L 1025.500 89.321 L 1026.500 89.167 L 1027.500 89.015 L 1028.500 88.808 L 1029.500 88.654 L 1030.500 88.476 L 1031.500 88.150 L 1032.500 87.824 L 1033.500 87.646 L 1034.500 87.493 L 1035.500 87.288 L 1036.500 87.162 L 1037.500 87.105 L 1038.500 86.979 L 1039.500 86.774 L 1040.500 86.623 L 1041.500 86.473 L 1042.500 86.268 L 1043.500 86.145 L 1044.500 86.115 L 1045.500 86.108 L 1046.500 86.079 L 1047.500 85.953 L 1048.500 85.724 L 1049.500 85.480 L 1050.500 85.251 L 1051.500 85.126 L 1052.500 85.097 L 1053.500 85.092 L 1054.500 85.088 L 1055.500 85.057 L 1056.500 84.907 L 1057.500 84.584 L 1058.500 84.262 L 1059.500 84.112 L 1060.500 84.081 L 1061.500 84.077 L 1062.500 84.075 L 1063.500 84.071 L 1064.500 84.042 L 1065.500 83.917 L 1066.500 83.689 L 1067.500 83.446 L 1068.500 83.217 L 1069.500 83.093 L 1070.500 83.064 L 1071.500 83.060 L 1072.500 83.059 L 1073.500 83.057 L 1074.500 83.054 L 1075.500 83.025 L 1076.500 82.901 L 1077.500 82.673 L 1078.500 82.430 L 1079.500 82.202 L 1080.500 82.078 L 1081.500 82.050 L 1082.500 82.046 L 1083.500 82.045 L 1084.500 82.044 L 1085.500 82.043 L 1086.500 82.042 L 1087.500 82.041 L 1088.500 82.040 L 1089.500 82.039 L 1090.500 82.038 L 1091.500 82.037 L 1092.498 82.036 L 1093.468 82.035 L 1094.682 82.186 L 1095.532 82.412 L 1096.502 82.653 L 1097.500 82.879 L 1098.500 83.001 L 1099.500 83.028 L 1100.500 83.029 L 1101.500 83.028 L 1102.500 83.028 L 1103.500 83.029 L 1104.500 83.056 L 1105.500 83.176 L 1106.500 83.377 L 1107.500 83.524 L 1108.500 83.672 L 1109.500 83.873 L 1110.500 83.993 L 1111.500 84.020 L 1112.500 84.023 L 1113.500 84.050 L 1114.500 84.170 L 1115.500 84.372 L 1116.500 84.519 L 1117.500 84.666 L 1118.500 84.868 L 1119.500 84.988 L 1120.500 85.015 L 1121.500 85.019 L 1122.500 85.045 L 1123.500 85.166 L 1124.500 85.367 L 1125.500 85.515 L 1126.500 85.662 L 1127.500 85.864 L 1128.500 85.987 L 1129.500 86.040 L 1130.500 86.163 L 1131.500 86.362 L 1132.500 86.485 L 1133.500 86.539 L 1134.500 86.662 L 1135.500 86.863 L 1136.500 87.011 L 1137.500 87.159 L 1138.500 87.360 L 1139.500 87.483 L 1140.500 87.539 L 1141.500 87.689 L 1142.500 88.009 L 1143.500 88.332 L 1144.500 88.506 L 1145.500 88.659 L 1146.500 88.887 L 1147.500 89.129 L 1148.500 89.355 L 1149.500 89.480 L 1150.500 89.534 L 1151.500 89.659 L 1152.500 89.886 L 1153.500 90.128 L 1154.500 90.354 L 1155.500 90.481 L 1156.500 90.562 L 1157.500 90.806 L 1158.500 91.207 L 1159.500 91.476 L 1160.500 91.653 L 1161.500 91.884 L 1162.500 92.126 L 1163.500 92.357 L 1164.500 92.534 L 1165.500 92.803 L 1166.500 93.208 L 1167.500 93.504 L 1168.500 93.800 L 1169.500 94.206 L 1170.500 94.477 L 1171.500 94.679 L 1172.500 95.004 L 1173.500 95.326 L 1174.500 95.503 L 1175.500 95.681 L 1176.500 96.008 L 1177.500 96.382 L 1178.500 96.772 L 1179.500 97.205 L 1180.500 97.503 L 1181.500 97.799 L 1182.500 98.202 L 1183.500 98.449 L 1184.500 98.557 L 1185.500 98.805 L 1186.500 99.233 L 1187.500 99.626 L 1188.500 100.029 L 1189.500 100.502 L 1190.500 100.973 L 1191.500 101.352 L 1192.500 101.650 L 1193.500 102.004 L 1194.500 102.381 L 1195.500 102.773 L 1196.500 103.230 L 1197.500 103.623 L 1198.500 103.999 L 1199.500 104.356 L 1200.500 104.681 L 1201.500 105.179 L 1202.500 105.824 L 1203.500 106.322 L 1204.500 106.649 L 1205.500 107.030 L 1206.500 107.503 L 1207.500 107.999 L 1208.500 108.474 L 1209.500 108.878 L 1210.500 109.275 L 1211.500 109.757 L 1212.500 110.245 L 1213.500 110.730 L 1214.500 111.153 L 1215.500 111.678 L 1216.500 112.353 L 1217.500 112.969 L 1218.500 113.471 L 1219.500 113.878 L 1220.500 114.274 L 1221.500 114.759 L 1222.500 115.274 L 1223.500 115.877 L 1224.500 116.474 L 1225.500 117.001 L 1226.500 117.528 L 1227.500 118.124 L 1228.500 118.729 L 1229.500 119.272 L 1230.500 119.879 L 1231.500 120.501 L 1232.500 121.122 L 1233.500 121.729 L 1234.500 122.272 L 1235.500 122.879 L 1236.500 123.503 L 1237.500 124.149 L 1238.500 124.852 L 1239.500 125.500 L 1240.500 126.148 L 1241.500 126.850 L 1242.500 127.471 L 1243.500 128.000 L 1244.500 128.527 L 1245.500 129.124 L 1246.500 129.731 L 1247.500 130.303 L 1248.500 131.054 L 1249.500 131.946 L 1250.500 132.700 L 1251.500 133.298 L 1252.500 134.029 L 1253.500 134.852 L 1254.500 135.621 L 1255.500 136.379 L 1256.500 137.150 L 1257.500 138.000 L 1258.500 138.850 L 1259.500 139.621 L 1260.500 140.377 L 1261.500 141.123 L 1262.500 141.877 L 1263.500 142.623 L 1264.500 143.379 L 1265.500 144.153 L 1266.500 145.027 L 1267.500 145.973 L 1268.500 146.848 L 1269.500 147.621 L 1270.500 148.379 L 1271.500 149.153 L 1272.500 150.027 L 1273.500 150.973 L 1274.500 151.850 L 1275.500 152.650 L 1276.500 153.529 L 1277.500 154.502 L 1278.500 155.500 L 1279.500 156.500 L 1280.500 157.500 L 1281.500 158.498 L 1282.500 159.471 L 1283.498 160.350 L 1284.471 161.150 L 1285.350 162.029 L 1286.150 163.002 L 1287.029 164.000 L 1288.002 165.000 L 1289.000 166.000 L 1290.000 167.000 L 1291.000 168.000 L 1292.000 169.000 L 1292.998 170.000 L 1293.971 171.000 L 1294.850 172.000 L 1295.648 173.000 L 1296.500 174.000 L 1297.352 175.000 L 1298.148 176.000 L 1299.000 177.000 L 1299.850 178.000 L 1300.621 179.000 L 1301.379 180.000 L 1302.153 181.000 L 1303.029 182.000 L 1304.000 183.000 L 1304.971 184.000 L 1305.847 185.000 L 1306.621 186.000 L 1307.379 187.000 L 1308.150 188.000 L 1309.000 189.000 L 1309.850 190.000 L 1310.621 191.000 L 1311.379 192.000 L 1312.148 193.000 L 1312.971 194.000 L 1313.702 195.000 L 1314.298 196.000 L 1315.027 197.000 L 1315.825 198.000 L 1316.498 199.000 L 1317.148 200.000 L 1317.852 201.000 L 1318.500 202.000 L 1319.148 203.000 L 1319.850 204.000 L 1320.473 205.000 L 1321.027 206.000 L 1321.652 207.000 L 1322.377 208.000 L 1323.094 209.000 L 1323.726 210.000 L 1324.271 211.000 L 1324.879 212.000 L 1325.502 213.000 L 1326.148 214.000 L 1326.850 215.000 L 1327.471 216.000 L 1327.998 217.000 L 1328.500 218.000 L 1329.002 219.000 L 1329.529 220.000 L 1330.150 221.000 L 1330.850 222.000 L 1331.471 223.000 L 1331.998 224.000 L 1332.500 225.000 L 1333.000 226.000 L 1333.500 227.000 L 1334.002 228.000 L 1334.527 229.000 L 1335.121 230.000 L 1335.699 231.000 L 1336.121 232.000 L 1336.527 233.000 L 1337.002 234.000 L 1337.500 235.000 L 1337.998 236.000 L 1338.473 237.000 L 1338.877 238.000 L 1339.271 239.000 L 1339.729 240.000 L 1340.125 241.000 L 1340.554 242.000 L 1341.123 243.000 L 1341.700 244.000 L 1342.121 245.000 L 1342.527 246.000 L 1343.000 247.000 L 1343.473 248.000 L 1343.877 249.000 L 1344.269 250.000 L 1344.699 251.000 L 1344.973 252.000 L 1345.177 253.000 L 1345.529 254.000 L 1345.975 255.000 L 1346.377 256.000 L 1346.771 257.000 L 1347.226 258.000 L 1347.594 259.000 L 1347.877 260.000 L 1348.150 261.000 L 1348.500 262.000 L 1348.850 263.000 L 1349.123 264.000 L 1349.406 265.000 L 1349.773 266.000 L 1350.227 267.000 L 1350.594 268.000 L 1350.875 269.000 L 1351.123 270.000 L 1351.377 271.000 L 1351.623 272.000 L 1351.877 273.000 L 1352.123 274.000 L 1352.379 275.000 L 1352.650 276.000 L 1353.000 277.000 L 1353.350 278.000 L 1353.621 279.000 L 1353.877 280.000 L 1354.121 281.000 L 1354.348 282.000 L 1354.475 283.000 L 1354.556 284.000 L 1354.800 285.000 L 1355.199 286.000 L 1355.441 287.000 L 1355.496 288.000 L 1355.502 289.000 L 1355.532 290.000 L 1355.680 291.000 L 1356.002 292.000 L 1356.352 293.000 L 1356.648 294.000 L 1356.998 295.000 L 1357.320 296.000 L 1357.469 297.000 L 1357.500 298.000 L 1357.531 299.000 L 1357.680 300.000 L 1358.000 301.000 L 1358.320 302.000 L 1358.468 303.000 L 1358.498 304.000 L 1358.500 305.000 L 1358.505 306.000 L 1358.559 307.000 L 1358.801 308.000 L 1359.199 309.000 L 1359.441 310.000 L 1359.495 311.000 L 1359.500 312.000 L 1359.502 313.000 L 1359.532 314.000 L 1359.680 315.000 L 1360.000 316.000 L 1360.320 317.000 L 1360.468 318.000 L 1360.498 319.000 L 1360.502 320.000 L 1360.532 321.000 L 1360.680 322.000 L 1361.000 323.000 L 1361.320 324.000 L 1361.468 325.000 L 1361.498 326.000 L 1361.500 327.000 L 1361.502 328.000 L 1361.529 329.000 L 1361.653 330.000 L 1361.879 331.000 L 1362.121 332.000 L 1362.347 333.000 L 1362.471 334.000 L 1362.498 335.000 L 1362.500 336.000 L 1362.500 337.000 L 1362.502 338.000 L 1362.532 339.000 L 1362.680 340.000 L 1363.000 341.000 L 1363.320 342.000 L 1363.468 343.000 L 1363.498 344.000 L 1363.500 345.000 L 1363.500 346.000 L 1363.500 347.000 L 1363.500 348.000 L 1363.502 349.000 L 1363.529 350.000 L 1363.650 351.000 L 1363.850 352.000 L 1363.971 353.000 L 1363.995 354.000 L 1363.971 355.000 L 1363.850 356.000 L 1363.650 357.000 L 1363.529 358.000 L 1363.502 359.000 L 1363.498 360.000 L 1363.471 361.000 L 1363.350 362.000 L 1363.150 363.000 L 1363.029 364.000 L 1363.000 365.000 L 1362.971 366.000 L 1362.850 367.000 L 1362.650 368.000 L 1362.527 369.000 L 1362.473 370.000 L 1362.350 371.000 L 1362.150 372.000 L 1362.029 373.000 L 1362.002 374.000 L 1361.998 375.000 L 1361.971 376.000 L 1361.850 377.000 L 1361.648 378.000 L 1361.500 379.000 L 1361.352 380.000 L 1361.150 381.000 L 1361.029 382.000 L 1361.000 383.000 L 1360.971 384.000 L 1360.847 385.000 L 1360.621 386.000 L 1360.379 387.000 L 1360.153 388.000 L 1360.029 389.000 L 1360.002 390.000 L 1359.998 391.000 L 1359.971 392.000 L 1359.847 393.000 L 1359.621 394.000 L 1359.379 395.000 L 1359.153 396.000 L 1359.029 397.000 L 1359.000 398.000 L 1358.971 399.000 L 1358.847 400.000 L 1358.621 401.000 L 1358.379 402.000 L 1358.152 403.000 L 1358.027 404.000 L 1357.973 405.000 L 1357.848 406.000 L 1357.621 407.000 L 1357.379 408.000 L 1357.152 409.000 L 1357.025 410.000 L 1356.944 411.000 L 1356.700 412.000 L 1356.300 413.000 L 1356.056 414.000 L 1355.973 415.000 L 1355.821 416.000 L 1355.500 417.000 L 1355.180 418.000 L 1355.031 419.000 L 1355.000 420.000 L 1354.969 421.000 L 1354.820 422.000 L 1354.498 423.000 L 1354.148 424.000 L 1353.852 425.000 L 1353.502 426.000 L 1353.180 427.000 L 1353.029 428.000 L 1352.971 429.000 L 1352.820 430.000 L 1352.498 431.000 L 1352.148 432.000 L 1351.852 433.000 L 1351.502 434.000 L 1351.177 435.000 L 1351.000 436.000 L 1350.823 437.000 L 1350.500 438.000 L 1350.175 439.000 L 1349.973 440.000 L 1349.699 441.000 L 1349.269 442.000 L 1348.879 443.000 L 1348.502 444.000 L 1348.148 445.000 L 1347.852 446.000 L 1347.498 447.000 L 1347.121 448.000 L 1346.729 449.000 L 1346.271 450.000 L 1345.879 451.000 L 1345.500 452.000 L 1345.121 453.000 L 1344.729 454.000 L 1344.271 455.000 L 1343.879 456.000 L 1343.502 457.000 L 1343.148 458.000 L 1342.852 459.000 L 1342.498 460.000 L 1342.121 461.000 L 1341.726 462.000 L 1341.244 463.000 L 1340.754 464.000 L 1340.246 465.000 L 1339.756 466.000 L 1339.273 467.000 L 1338.877 468.000 L 1338.473 469.000 L 1338.000 470.000 L 1337.527 471.000 L 1337.123 472.000 L 1336.727 473.000 L 1336.244 474.000 L 1335.754 475.000 L 1335.246 476.000 L 1334.754 477.000 L 1334.244 478.000 L 1333.727 479.000 L 1333.123 480.000 L 1332.527 481.000 L 1332.002 482.000 L 1331.498 483.000 L 1330.973 484.000 L 1330.377 485.000 L 1329.771 486.000 L 1329.229 487.000 L 1328.623 488.000 L 1328.027 489.000 L 1327.502 490.000 L 1326.998 491.000 L 1326.471 492.000 L 1325.850 493.000 L 1325.148 494.000 L 1324.500 495.000 L 1323.852 496.000 L 1323.150 497.000 L 1322.529 498.000 L 1322.000 499.000 L 1321.471 500.000 L 1320.847 501.000 L 1320.121 502.000 L 1319.379 503.000 L 1318.650 504.000 L 1318.000 505.000 L 1317.352 506.000 L 1316.648 507.000 L 1315.998 508.000 L 1315.325 509.000 L 1314.527 510.000 L 1313.798 511.000 L 1313.200 512.000 L 1312.446 513.000 L 1311.554 514.000 L 1310.800 515.000 L 1310.202 516.000 L 1309.473 517.000 L 1308.675 518.000 L 1308.000 519.000 L 1307.323 520.000 L 1306.498 521.000 L 1305.650 522.000 L 1304.879 523.000 L 1304.121 524.000 L 1303.348 525.000 L 1302.473 526.000 L 1301.527 527.000 L 1300.650 528.000 L 1299.852 529.000 L 1299.000 530.000 L 1298.148 531.000 L 1297.350 532.000 L 1296.471 533.000 L 1295.498 534.000 L 1294.500 535.000 L 1293.500 536.000 L 1292.500 537.000 L 1291.502 538.000 L 1290.529 539.000 L 1289.650 540.000 L 1288.850 541.000 L 1287.971 541.998 L 1286.998 542.971 L 1286.000 543.850 L 1285.000 544.650 L 1284.000 545.529 L 1283.000 546.500 L 1282.000 547.471 L 1281.000 548.350 L 1280.000 549.150 L 1279.000 550.029 L 1278.000 551.002 L 1277.000 552.000 L 1276.000 553.000 L 1275.000 553.998 L 1274.000 554.971 L 1273.000 555.850 L 1272.000 556.648 L 1271.000 557.500 L 1270.000 558.352 L 1269.000 559.148 L 1268.000 560.000 L 1267.000 560.852 L 1266.000 561.650 L 1265.000 562.527 L 1264.000 563.471 L 1263.000 564.321 L 1262.000 565.000 L 1261.000 565.680 L 1260.000 566.529 L 1259.000 567.471 L 1258.000 568.321 L 1257.000 568.998 L 1256.000 569.650 L 1255.000 570.381 L 1254.000 571.150 L 1253.000 571.998 L 1252.000 572.823 L 1251.000 573.498 L 1250.000 574.148 L 1249.000 574.852 L 1248.000 575.500 L 1247.000 576.148 L 1246.000 576.852 L 1245.000 577.500 L 1244.000 578.148 L 1243.000 578.850 L 1242.000 579.473 L 1241.000 580.027 L 1240.000 580.651 L 1239.000 581.352 L 1238.000 582.000 L 1237.000 582.648 L 1236.000 583.352 L 1235.000 583.998 L 1234.000 584.621 L 1233.000 585.229 L 1232.000 585.772 L 1231.000 586.377 L 1230.000 586.974 L 1229.000 587.501 L 1228.000 588.028 L 1227.000 588.624 L 1226.000 589.227 L 1225.000 589.745 L 1224.000 590.254 L 1223.000 590.747 L 1222.000 591.254 L 1221.000 591.745 L 1220.000 592.227 L 1219.000 592.626 L 1218.000 593.055 L 1217.000 593.626 L 1216.000 594.230 L 1215.000 594.770 L 1214.000 595.348 L 1213.000 595.826 L 1212.000 596.176 L 1211.000 596.653 L 1210.000 597.230 L 1209.000 597.743 L 1208.000 598.228 L 1207.000 598.624 L 1206.000 599.028 L 1205.000 599.503 L 1204.000 599.999 L 1203.000 600.472 L 1202.000 600.851 L 1201.000 601.152 L 1200.000 601.531 L 1199.000 602.004 L 1198.000 602.499 L 1197.000 602.972 L 1196.000 603.351 L 1195.000 603.652 L 1194.000 604.029 L 1193.000 604.475 L 1192.000 604.852 L 1191.000 605.150 L 1190.000 605.502 L 1189.000 605.854 L 1188.000 606.150 L 1187.000 606.502 L 1186.000 606.854 L 1185.000 607.153 L 1184.000 607.530 L 1183.000 607.976 L 1182.000 608.352 L 1181.000 608.651 L 1180.000 609.003 L 1179.000 609.353 L 1178.000 609.624 L 1177.000 609.880 L 1176.000 610.127 L 1175.000 610.383 L 1174.000 610.656 L 1173.000 611.031 L 1172.000 611.474 L 1171.000 611.824 L 1170.000 612.002 L 1169.000 612.154 L 1168.000 612.383 L 1167.000 612.628 L 1166.000 612.881 L 1165.000 613.128 L 1164.000 613.382 L 1163.000 613.628 L 1162.000 613.882 L 1161.000 614.128 L 1160.000 614.382 L 1159.000 614.627 L 1158.000 614.853 L 1157.000 614.979 L 1156.000 615.035 L 1155.000 615.186 L 1154.000 615.509 L 1153.000 615.856 L 1152.000 616.126 L 1151.000 616.357 L 1150.000 616.507 L 1149.000 616.656 L 1148.000 616.860 L 1147.000 617.010 L 1146.000 617.186 L 1145.000 617.508 L 1144.000 617.829 L 1143.000 617.977 L 1142.000 618.007 L 1141.000 618.012 L 1140.000 618.041 L 1139.000 618.190 L 1138.000 618.510 L 1137.000 618.831 L 1136.000 618.979 L 1135.000 619.009 L 1134.000 619.012 L 1133.000 619.012 L 1132.000 619.017 L 1131.000 619.071 L 1130.000 619.314 L 1129.000 619.713 L 1128.000 619.955 L 1127.000 620.010 L 1126.000 620.015 L 1125.000 620.017 L 1124.000 620.047 L 1123.000 620.195 L 1122.000 620.516 L 1121.000 620.837 L 1120.000 620.986 L 1119.000 621.015 L 1118.000 621.018 L 1117.000 621.019 L 1116.000 621.019 L 1115.000 621.024 L 1114.000 621.079 L 1113.000 621.321 L 1112.000 621.721 L 1111.000 621.964 L 1110.000 622.018 L 1109.000 622.023 L 1108.000 622.024 L 1107.000 622.025 L 1106.000 622.025 L 1105.000 622.028 L 1104.000 622.058 L 1103.000 622.207 L 1102.000 622.528 L 1101.000 622.849 L 1100.000 622.998 L 1099.000 623.028 L 1098.000 623.031 L 1097.000 623.032 L 1096.000 623.033 L 1095.000 623.034 L 1094.000 623.037 L 1093.000 623.065 L 1092.000 623.186 L 1091.000 623.385 L 1090.000 623.480 L 1089.000 623.387 L 1088.000 623.190 L 1087.000 623.070 L 1086.000 623.045 L 1085.000 623.043 L 1084.000 623.044 L 1083.000 623.045 L 1082.000 623.044 L 1081.000 623.019 L 1080.000 622.897 L 1079.000 622.671 L 1078.000 622.431 L 1077.000 622.205 L 1076.000 622.083 L 1075.000 622.058 L 1074.000 622.057 L 1073.000 622.058 L 1072.000 622.057 L 1071.000 622.032 L 1070.000 621.910 L 1069.000 621.685 L 1068.000 621.445 L 1067.000 621.220 L 1066.000 621.098 L 1065.000 621.073 L 1064.000 621.072 L 1063.000 621.072 L 1062.000 621.046 L 1061.000 620.927 L 1060.000 620.727 L 1059.000 620.581 L 1058.000 620.435 L 1057.000 620.235 L 1056.000 620.116 L 1055.000 620.089 L 1054.000 620.062 L 1053.000 619.943 L 1052.000 619.743 L 1051.000 619.598 L 1050.000 619.452 L 1049.000 619.252 L 1048.000 619.134 L 1047.000 619.107 L 1046.000 619.080 L 1045.000 618.959 L 1044.000 618.735 L 1043.000 618.496 L 1042.000 618.272 L 1041.000 618.151 L 1040.000 618.125 L 1039.000 618.098 L 1038.000 617.980 L 1037.000 617.781 L 1036.000 617.636 L 1035.000 617.491 L 1034.000 617.292 L 1033.000 617.172 L 1032.000 617.121 L 1031.000 616.999 L 1030.000 616.774 L 1029.000 616.508 L 1028.000 616.162 L 1027.000 615.815 L 1026.000 615.550 L 1025.000 615.325 L 1024.000 615.203 L 1023.000 615.152 L 1022.000 615.031 L 1021.000 614.808 L 1020.000 614.568 L 1019.000 614.316 L 1018.000 614.049 L 1017.000 613.705 L 1016.000 613.387 L 1015.000 613.241 L 1014.000 613.186 L 1013.000 613.041 L 1012.000 612.722 L 1011.000 612.377 L 1010.000 612.086 L 1009.000 611.738 L 1008.000 611.393 L 1007.000 611.127 L 1006.000 610.874 L 1005.000 610.608 L 1004.000 610.265 L 1003.000 609.943 L 1002.000 609.746 L 1001.000 609.478 L 1000.000 609.055 L 999.000 608.695 L 998.000 608.418 L 997.000 608.151 L 996.000 607.806 L 995.000 607.463 L 994.000 607.195 L 993.000 606.918 L 992.000 606.559 L 991.000 606.135 L 990.000 605.843 L 989.000 605.551 L 988.000 605.125 L 987.000 604.741 L 986.000 604.369 L 985.000 603.997 L 984.000 603.609 L 983.000 603.134 L 982.000 602.650 L 981.000 602.150 L 980.000 601.669 L 979.000 601.219 L 978.000 600.926 L 977.000 600.635 L 976.000 600.210 L 975.000 599.823 L 974.000 599.403 L 973.000 598.844 L 972.000 598.300 L 971.000 597.983 L 970.000 597.689 L 969.000 597.240 L 968.000 596.760 L 967.000 596.261 L 966.000 595.777 L 965.000 595.279 L 964.000 594.795 L 963.000 594.297 L 962.000 593.813 L 961.000 593.315 L 960.000 592.832 L 959.000 592.332 L 958.000 591.824 L 957.000 591.233 L 956.000 590.671 L 955.000 590.250 L 954.000 589.837 L 953.000 589.268 L 952.000 588.683 L 951.000 588.141 L 950.000 587.529 L 949.000 586.840 L 948.000 586.230 L 947.000 585.714 L 946.000 585.220 L 945.000 584.704 L 944.000 584.095 L 943.000 583.405 L 942.000 582.768 L 941.000 582.132 L 940.000 581.440 L 939.000 580.804 L 938.000 580.168 L 937.000 579.478 L 936.000 578.867 L 935.000 578.323 L 934.000 577.688 L 933.000 576.905 L 932.000 576.189 L 931.000 575.607 L 930.000 574.917 L 929.000 574.226 L 928.000 573.645 L 927.000 572.929 L 926.000 572.145 L 925.000 571.484 L 924.000 570.820 L 923.000 570.011 L 922.000 569.203 L 921.000 568.539 L 920.000 567.874 L 919.000 567.041 L 918.000 566.139 L 917.000 565.398 L 916.000 564.814 L 915.000 564.100 L 914.000 563.317 L 913.000 562.657 L 912.000 561.993 L 911.000 561.156 L 910.000 560.203 L 909.000 559.250 L 908.000 558.414 L 906.990 557.739 L 905.962 557.041 L 904.916 556.150 L 903.851 555.120 L 902.770 554.068 L 901.671 553.087 L 900.557 552.166 L 899.426 551.149 L 898.280 550.045 L 897.120 548.992 L 895.945 547.998 L 894.756 546.910 L 893.554 545.711 L 892.338 544.475 L 891.111 543.246 L 889.871 542.097 L 888.620 541.013 L 887.358 539.837 L 886.086 538.555 L 884.803 537.236 L 883.512 535.904 L 882.211 534.561 L 880.901 533.210 L 879.584 531.874 L 878.259 530.624 L 876.927 529.443 L 875.588 528.176 L 874.244 526.808 L 872.893 525.409 L 871.538 524.001 L 870.178 522.588 L 868.814 521.170 L 867.446 519.748 L 866.077 518.321 L 864.731 516.892 L 863.476 515.458 L 862.298 514.020 L 861.040 512.582 L 859.688 511.146 L 858.310 509.709 L 856.931 508.274 L 855.552 506.839 L 854.174 505.405 L 852.799 503.974 L 851.425 502.545 L 850.056 501.120 L 848.715 499.697 L 847.472 498.278 L 846.312 496.862 L 845.077 495.453 L 843.756 494.052 L 842.441 492.658 L 841.223 491.269 L 840.091 489.887 L 838.889 488.514 L 837.626 487.152 L 836.442 485.799 L 835.367 484.453 L 834.318 483.118 L 833.264 481.795 L 832.142 480.485 L 831.028 479.188 L 829.979 477.903 L 828.860 476.633 L 827.664 475.380 L 826.505 474.141 L 825.545 472.913 L 824.755 471.699 L 823.822 470.504 L 822.717 469.330 L 821.605 468.175 L 820.623 467.035 L 819.829 465.911 L 819.051 464.807 L 818.119 463.726 L 817.111 462.668 L 816.193 461.635 L 815.423 460.674 L 814.835 459.975" stroke="#22263D" stroke-width="117" stroke-linecap="butt" stroke-linejoin="round" fill="none"/>
</svg>
