<svg xmlns="http://www.w3.org/2000/svg" viewBox="0 0 1449 706" fill="none">
  <path
    d="M 664.409,426.573
    L 660.509,430.531
    L 656.607,434.476
    L 652.703,438.408
    L 648.797,442.326
    L 644.888,446.230
    L 640.976,450.118
    L 637.062,453.989
    L 633.146,457.844
    L 629.226,461.681
    L 625.304,465.500
    L 621.379,469.299
    L 617.450,473.078
    L 613.519,476.837
    L 609.584,480.573
    L 605.646,484.288
    L 601.705,487.980
    L 597.760,491.647
    L 593.812,495.290
    L 589.860,498.908
    L 585.904,502.500
    L 581.946,506.064
    L 577.983,509.601
    L 574.017,513.109
    L 570.047,516.588
    L 566.073,520.036
    L 562.095,523.454
    L 558.114,526.839
    L 554.129,530.193
    L 550.140,533.512
    L 546.148,536.798
    L 542.151,540.048
    L 538.151,543.263
    L 534.147,546.441
    L 530.140,549.581
    L 526.129,552.683
    L 522.114,555.746
    L 518.096,558.768
    L 514.074,561.750
    L 510.049,564.690
    L 506.020,567.587
    L 501.988,570.441
    L 497.953,573.251
    L 493.915,576.016
    L 489.874,578.734
    L 485.831,581.406
    L 481.784,584.030
    L 477.735,586.606
    L 473.684,589.132
    L 469.630,591.607
    L 465.574,594.032
    L 461.516,596.404
    L 457.457,598.724
    L 453.396,600.990
    L 449.334,603.201
    L 445.270,605.357
    L 441.206,607.457
    L 437.141,609.499
    L 433.076,611.484
    L 429.010,613.409
    L 424.945,615.275
    L 420.880,617.080
    L 416.816,618.824
    L 412.753,620.506
    L 408.691,622.124
    L 404.631,623.678
    L 400.573,625.168
    L 396.518,626.592
    L 392.465,627.950
    L 388.416,629.241
    L 384.370,630.464
    L 380.328,631.617
    L 376.290,632.702
    L 372.257,633.716
    L 368.230,634.659
    L 364.208,635.530
    L 360.192,636.328
    L 356.183,637.053
    L 352.181,637.704
    L 348.187,638.281
    L 344.202,638.782
    L 340.225,639.207
    L 336.257,639.555
    L 332.299,639.826
    L 328.352,640.018
    L 324.416,640.133
    L 320.492,640.167
    L 316.580,640.122
    L 312.680,639.997
    L 308.795,639.791
    L 304.924,639.503
    L 301.067,639.134
    L 297.227,638.682
    L 293.402,638.147
    L 289.595,637.530
    L 285.806,636.828
    L 282.035,636.043
    L 278.283,635.173
    L 274.551,634.219
    L 270.840,633.179
    L 267.151,632.055
    L 263.484,630.845
    L 259.841,629.550
    L 256.221,628.169
    L 252.626,626.702
    L 249.057,625.149
    L 245.514,623.510
    L 241.999,621.785
    L 238.511,619.974
    L 235.053,618.077
    L 231.625,616.094
    L 228.228,614.026
    L 224.863,611.872
    L 221.530,609.632
    L 218.230,607.308
    L 214.965,604.898
    L 211.736,602.404
    L 208.542,599.826
    L 205.386,597.164
    L 202.268,594.419
    L 199.189,591.591
    L 196.150,588.681
    L 193.152,585.689
    L 190.196,582.616
    L 187.282,579.463
    L 184.412,576.231
    L 181.586,572.919
    L 178.806,569.529
    L 176.072,566.062
    L 173.386,562.519
    L 170.747,558.901
    L 168.158,555.208
    L 165.619,551.442
    L 163.130,547.604
    L 160.693,543.695
    L 158.309,539.716
    L 155.978,535.668
    L 153.702,531.553
    L 151.480,527.372
    L 149.314,523.126
    L 147.205,518.817
    L 145.154,514.446
    L 143.161,510.015
    L 141.226,505.525
    L 139.352,500.978
    L 137.537,496.375
    L 135.784,491.718
    L 134.093,487.009
    L 132.465,482.250
    L 130.899,477.441
    L 129.397,472.586
    L 127.960,467.686
    L 126.587,462.742
    L 125.280,457.757
    L 124.039,452.733
    L 122.865,447.671
    L 121.757,442.574
    L 120.718,437.444
    L 119.745,432.282
    L 118.842,427.090
    L 118.007,421.872
    L 117.241,416.629
    L 116.544,411.362
    L 115.917,406.075
    L 115.360,400.769
    L 114.873,395.447
    L 114.456,390.111
    L 114.110,384.762
    L 113.834,379.404
    L 113.630,374.038
    L 113.496,368.667
    L 113.433,363.293
    L 113.441,357.917
    L 113.520,352.544
    L 113.670,347.174
    L 113.891,341.809
    L 114.183,336.453
    L 114.545,331.107
    L 114.978,325.774
    L 115.481,320.455
    L 116.054,315.153
    L 116.697,309.871
    L 117.409,304.609
    L 118.191,299.371
    L 119.042,294.159
    L 119.961,288.974
    L 120.949,283.819
    L 122.004,278.696
    L 123.127,273.607
    L 124.316,268.554
    L 125.572,263.538
    L 126.894,258.562
    L 128.282,253.629
    L 129.734,248.738
    L 131.250,243.894
    L 132.830,239.096
    L 134.473,234.348
    L 136.178,229.651
    L 137.945,225.006
    L 139.773,220.416
    L 141.662,215.882
    L 143.610,211.405
    L 145.616,206.987
    L 147.681,202.630
    L 149.803,198.336
    L 151.981,194.105
    L 154.216,189.938
    L 156.505,185.839
    L 158.848,181.806
    L 161.244,177.843
    L 163.693,173.950
    L 166.193,170.128
    L 168.744,166.379
    L 171.344,162.703
    L 173.994,159.102
    L 176.691,155.576
    L 179.435,152.126
    L 182.226,148.754
    L 185.062,145.461
    L 187.942,142.246
    L 190.865,139.111
    L 193.832,136.057
    L 196.839,133.083
    L 199.887,130.192
    L 202.975,127.383
    L 206.102,124.657
    L 209.267,122.014
    L 212.469,119.455
    L 215.706,116.980
    L 218.979,114.590
    L 222.286,112.285
    L 225.627,110.065
    L 228.999,107.930
    L 232.404,105.881
    L 235.839,103.918
    L 239.304,102.041
    L 242.797,100.249
    L 246.319,98.544
    L 249.868,96.925
    L 253.443,95.391
    L 257.043,93.944
    L 260.669,92.582
    L 264.318,91.306
    L 267.990,90.116
    L 271.684,89.011
    L 275.400,87.991
    L 279.136,87.056
    L 282.892,86.206
    L 286.668,85.439
    L 290.461,84.757
    L 294.272,84.158
    L 298.100,83.643
    L 301.945,83.209
    L 305.804,82.859
    L 309.679,82.590
    L 313.568,82.402
    L 317.470,82.295
    L 321.385,82.268
    L 325.312,82.321
    L 329.251,82.453
    L 333.200,82.664
    L 337.160,82.952
    L 341.130,83.318
    L 345.109,83.760
    L 349.097,84.279
    L 353.093,84.872
    L 357.096,85.540
    L 361.107,86.282
    L 365.124,87.097
    L 369.147,87.985
    L 373.176,88.944
    L 377.210,89.974
    L 381.248,91.074
    L 385.291,92.244
    L 389.338,93.482
    L 393.388,94.788
    L 397.442,96.161
    L 401.498,97.600
    L 405.556,99.105
    L 409.617,100.674
    L 413.679,102.307
    L 417.742,104.003
    L 421.806,105.761
    L 425.871,107.580
    L 429.937,109.459
    L 434.002,111.398
    L 438.067,113.396
    L 442.132,115.451
    L 446.196,117.564
    L 450.259,119.732
    L 454.321,121.956
    L 458.382,124.235
    L 462.441,126.566
    L 466.498,128.951
    L 470.554,131.387
    L 474.607,133.874
    L 478.658,136.412
    L 482.706,138.998
    L 486.752,141.633
    L 490.795,144.316
    L 494.836,147.045
    L 498.873,149.820
    L 502.907,152.640
    L 506.938,155.504
    L 510.966,158.411
    L 514.991,161.361
    L 519.012,164.352
    L 523.029,167.384
    L 527.043,170.455
    L 531.053,173.566
    L 535.060,176.715
    L 539.063,179.901
    L 543.062,183.124
    L 547.058,186.383
    L 551.050,189.676
    L 555.037,193.003
    L 559.022,196.364
    L 563.002,199.757
    L 566.979,203.182
    L 570.952,206.637
    L 574.921,210.123
    L 578.886,213.638
    L 582.848,217.181
    L 586.806,220.751
    L 590.761,224.349
    L 594.711,227.972
    L 598.659,231.621
    L 602.603,235.294
    L 606.543,238.991
    L 610.481,242.711
    L 614.415,246.453
    L 618.346,250.216
    L 622.273,254.000
    L 626.198,257.804
    L 630.120,261.626
    L 634.038,265.468
    L 637.955,269.326
    L 641.868,273.202
    L 645.779,277.093
    L 649.687,281.000
    L 653.593,284.921
    L 657.497,288.856
    L 661.398,292.805
    L 665.298,296.765
    L 669.195,300.738
    L 673.091,304.721
    L 676.984,308.714
    L 680.877,312.717
    L 684.767,316.728
    L 688.657,320.747
    L 692.545,324.774
    L 696.432,328.807
    L 700.318,332.845
    L 704.203,336.889
    L 708.087,340.937
    L 711.971,344.989
    L 715.854,349.044
    L 719.737,353.100
    L 723.620,357.158
    L 727.502,361.217
    L 727.502,361.217
    L 731.384,357.158
    L 735.267,353.100
    L 739.150,349.044
    L 743.033,344.989
    L 746.917,340.937
    L 750.801,336.889
    L 754.686,332.845
    L 758.572,328.807
    L 762.459,324.774
    L 766.347,320.747
    L 770.237,316.728
    L 774.127,312.717
    L 778.020,308.714
    L 781.914,304.721
    L 785.809,300.738
    L 789.707,296.765
    L 793.606,292.805
    L 797.507,288.856
    L 801.411,284.921
    L 805.317,281.000
    L 809.225,277.093
    L 813.136,273.202
    L 817.050,269.326
    L 820.966,265.468
    L 824.885,261.626
    L 828.806,257.804
    L 832.731,254.000
    L 836.659,250.216
    L 840.589,246.453
    L 844.523,242.711
    L 848.461,238.991
    L 852.401,235.294
    L 856.345,231.621
    L 860.293,227.972
    L 864.244,224.349
    L 868.198,220.751
    L 872.156,217.181
    L 876.118,213.638
    L 880.083,210.123
    L 884.053,206.637
    L 888.025,203.182
    L 892.002,199.757
    L 895.982,196.364
    L 899.967,193.003
    L 903.955,189.676
    L 907.946,186.383
    L 911.942,183.124
    L 915.941,179.901
    L 919.944,176.715
    L 923.951,173.566
    L 927.961,170.455
    L 931.975,167.384
    L 935.993,164.352
    L 940.014,161.361
    L 944.038,158.411
    L 948.066,155.504
    L 952.097,152.640
    L 956.131,149.820
    L 960.168,147.045
    L 964.209,144.316
    L 968.252,141.633
    L 972.298,138.998
    L 976.346,136.412
    L 980.397,133.874
    L 984.450,131.387
    L 988.506,128.951
    L 992.563,126.566
    L 996.622,124.235
    L 1000.683,121.956
    L 1004.745,119.732
    L 1008.808,117.564
    L 1012.872,115.451
    L 1016.937,113.396
    L 1021.002,111.398
    L 1025.068,109.459
    L 1029.133,107.580
    L 1033.198,105.761
    L 1037.262,104.003
    L 1041.325,102.307
    L 1045.387,100.674
    L 1049.448,99.105
    L 1053.506,97.600
    L 1057.562,96.161
    L 1061.616,94.788
    L 1065.666,93.482
    L 1069.713,92.244
    L 1073.756,91.074
    L 1077.795,89.974
    L 1081.829,88.944
    L 1085.857,87.985
    L 1089.881,87.097
    L 1093.898,86.282
    L 1097.908,85.540
    L 1101.912,84.872
    L 1105.907,84.279
    L 1109.895,83.760
    L 1113.874,83.318
    L 1117.844,82.952
    L 1121.804,82.664
    L 1125.753,82.453
    L 1129.692,82.321
    L 1133.619,82.268
    L 1137.534,82.295
    L 1141.436,82.402
    L 1145.325,82.590
    L 1149.200,82.859
    L 1153.059,83.209
    L 1156.904,83.643
    L 1160.732,84.158
    L 1164.543,84.757
    L 1168.337,85.439
    L 1172.112,86.206
    L 1175.868,87.056
    L 1179.604,87.991
    L 1183.320,89.011
    L 1187.014,90.116
    L 1190.686,91.306
    L 1194.335,92.582
    L 1197.961,93.944
    L 1201.561,95.391
    L 1205.136,96.925
    L 1208.685,98.544
    L 1212.207,100.249
    L 1215.701,102.041
    L 1219.165,103.918
    L 1222.600,105.881
    L 1226.005,107.930
    L 1229.378,110.065
    L 1232.718,112.285
    L 1236.025,114.590
    L 1239.298,116.980
    L 1242.536,119.455
    L 1245.737,122.014
    L 1248.902,124.657
    L 1252.029,127.383
    L 1255.117,130.192
    L 1258.165,133.083
    L 1261.173,136.057
    L 1264.139,139.111
    L 1267.062,142.246
    L 1269.942,145.461
    L 1272.778,148.754
    L 1275.569,152.126
    L 1278.313,155.576
    L 1281.010,159.102
    L 1283.660,162.703
    L 1286.260,166.379
    L 1288.811,170.128
    L 1291.311,173.950
    L 1293.760,177.843
    L 1296.156,181.806
    L 1298.499,185.839
    L 1300.788,189.938
    L 1303.023,194.105
    L 1305.201,198.336
    L 1307.323,202.630
    L 1309.388,206.987
    L 1311.395,211.405
    L 1313.342,215.882
    L 1315.231,220.416
    L 1317.059,225.006
    L 1318.826,229.651
    L 1320.531,234.348
    L 1322.174,239.096
    L 1323.754,243.894
    L 1325.270,248.738
    L 1326.723,253.629
    L 1328.110,258.562
    L 1329.432,263.538
    L 1330.688,268.554
    L 1331.878,273.607
    L 1333.000,278.696
    L 1334.056,283.819
    L 1335.043,288.974
    L 1335.962,294.159
    L 1336.813,299.371
    L 1337.595,304.609
    L 1338.308,309.871
    L 1338.950,315.153
    L 1339.524,320.455
    L 1340.027,325.774
    L 1340.459,331.107
    L 1340.822,336.453
    L 1341.113,341.809
    L 1341.334,347.174
    L 1341.484,352.544
    L 1341.563,357.917
    L 1341.571,363.293
    L 1341.508,368.667
    L 1341.374,374.038
    L 1341.170,379.404
    L 1340.894,384.762
    L 1340.548,390.111
    L 1340.131,395.447
    L 1339.644,400.769
    L 1339.087,406.075
    L 1338.460,411.362
    L 1337.763,416.629
    L 1336.997,421.872
    L 1336.162,427.090
    L 1335.259,432.282
    L 1334.287,437.444
    L 1333.247,442.574
    L 1332.139,447.671
    L 1330.965,452.733
    L 1329.724,457.757
    L 1328.417,462.742
    L 1327.044,467.686
    L 1325.607,472.586
    L 1324.105,477.441
    L 1322.540,482.250
    L 1320.911,487.009
    L 1319.220,491.718
    L 1317.467,496.375
    L 1315.653,500.978
    L 1313.778,505.525
    L 1311.844,510.015
    L 1309.850,514.446
    L 1307.799,518.817
    L 1305.690,523.126
    L 1303.524,527.372
    L 1301.302,531.553
    L 1299.026,535.668
    L 1296.695,539.716
    L 1294.311,543.695
    L 1291.874,547.604
    L 1289.385,551.442
    L 1286.846,555.208
    L 1284.257,558.901
    L 1281.618,562.519
    L 1278.932,566.062
    L 1276.198,569.529
    L 1273.418,572.919
    L 1270.592,576.231
    L 1267.722,579.463
    L 1264.809,582.616
    L 1261.852,585.689
    L 1258.854,588.681
    L 1255.815,591.591
    L 1252.736,594.419
    L 1249.618,597.164
    L 1246.462,599.826
    L 1243.268,602.404
    L 1240.039,604.898
    L 1236.774,607.308
    L 1233.475,609.632
    L 1230.142,611.872
    L 1226.776,614.026
    L 1223.379,616.094
    L 1219.951,618.077
    L 1216.493,619.974
    L 1213.006,621.785
    L 1209.490,623.510
    L 1205.947,625.149
    L 1202.378,626.702
    L 1198.783,628.169
    L 1195.164,629.550
    L 1191.520,630.845
    L 1187.853,632.055
    L 1184.164,633.179
    L 1180.453,634.219
    L 1176.721,635.173
    L 1172.969,636.043
    L 1169.198,636.828
    L 1165.409,637.530
    L 1161.602,638.147
    L 1157.777,638.682
    L 1153.937,639.134
    L 1150.080,639.503
    L 1146.209,639.791
    L 1142.324,639.997
    L 1138.425,640.122
    L 1134.512,640.167
    L 1130.588,640.133
    L 1126.652,640.018
    L 1122.705,639.826
    L 1118.747,639.555
    L 1114.779,639.207
    L 1110.802,638.782
    L 1106.817,638.281
    L 1102.823,637.704
    L 1098.821,637.053
    L 1094.812,636.328
    L 1090.796,635.530
    L 1086.775,634.659
    L 1082.747,633.716
    L 1078.714,632.702
    L 1074.677,631.617
    L 1070.634,630.464
    L 1066.588,629.241
    L 1062.539,627.950
    L 1058.486,626.592
    L 1054.431,625.168
    L 1050.373,623.678
    L 1046.313,622.124
    L 1042.251,620.506
    L 1038.188,618.824
    L 1034.124,617.080
    L 1030.059,615.275
    L 1025.994,613.409
    L 1021.929,611.484
    L 1017.863,609.499
    L 1013.798,607.457
    L 1009.734,605.357
    L 1005.671,603.201
    L 1001.608,600.990
    L 997.547,598.724
    L 993.488,596.404
    L 989.430,594.032
    L 985.374,591.607
    L 981.321,589.132
    L 977.269,586.606
    L 973.220,584.030
    L 969.174,581.406
    L 965.130,578.734
    L 961.089,576.016
    L 957.051,573.251
    L 953.016,570.441
    L 948.984,567.587
    L 944.955,564.690
    L 940.930,561.750
    L 936.908,558.768
    L 932.890,555.746
    L 928.875,552.683
    L 924.864,549.581
    L 920.857,546.441
    L 916.853,543.263
    L 912.853,540.048
    L 908.856,536.798
    L 904.864,533.512
    L 900.875,530.193
    L 896.890,526.839
    L 892.909,523.454
    L 888.931,520.036
    L 884.957,516.588
    L 880.987,513.109
    L 877.021,509.601
    L 873.059,506.064
    L 869.100,502.500
    L 865.144,498.908
    L 861.193,495.290
    L 857.244,491.647
    L 853.300,487.980
    L 849.358,484.288
    L 845.420,480.573
    L 841.486,476.837
    L 837.554,473.078
    L 833.626,469.299
    L 829.700,465.500
    L 825.778,461.681
    L 821.858,457.844
    L 817.942,453.989
    L 814.028,450.118
    L 810.116,446.230
    L 806.207,442.326
    L 802.301,438.408
    L 798.397,434.476
    L 794.495,430.531
    L 790.595,426.573"
    stroke="#22263D"
    stroke-width="99.887"
    stroke-linecap="butt"
    stroke-linejoin="round"
    fill="none"
  />
</svg>
