<svg xmlns="http://www.w3.org/2000/svg" viewBox="0 0 768 768" fill="none">
  <path d="M 364.633 403.545 C 361.556 407.149 358.444 410.731 355.281 414.278 C 352.117 417.825 348.901 421.337 345.615 424.798 C 342.329 428.259 338.974 431.669 335.532 435.008 C 332.091 438.348 328.563 441.617 324.932 444.791 C 321.301 447.965 317.567 451.045 313.716 453.999 C 309.865 456.953 305.897 459.782 301.800 462.448 C 297.703 465.114 293.476 467.617 289.114 469.911 C 284.752 472.206 280.254 474.291 275.621 476.112 C 270.988 477.934 266.220 479.491 261.327 480.722 C 256.435 481.953 251.419 482.857 246.306 483.365 C 241.192 483.873 235.981 483.984 230.719 483.629 C 225.457 483.273 220.144 482.449 214.849 481.093 C 209.553 479.737 204.276 477.848 199.112 475.378 C 193.947 472.908 188.896 469.857 184.074 466.209 C 179.252 462.561 174.660 458.315 170.429 453.500 C 166.199 448.686 162.331 443.302 158.955 437.434 C 155.579 431.566 152.697 425.215 150.418 418.521 C 148.138 411.826 146.463 404.791 145.460 397.600 C 144.457 390.409 144.127 383.064 144.485 375.774 C 144.842 368.484 145.886 361.250 147.573 354.273 C 149.261 347.295 151.590 340.575 154.470 334.278 C 157.350 327.980 160.778 322.106 164.633 316.768 C 168.488 311.429 172.768 306.626 177.340 302.414 C 181.913 298.202 186.776 294.580 191.806 291.552 C 196.837 288.523 202.033 286.088 207.289 284.213 C 212.545 282.337 217.862 281.019 223.157 280.202 C 228.452 279.385 233.726 279.068 238.922 279.181 C 244.118 279.294 249.236 279.837 254.240 280.741 C 259.245 281.644 264.136 282.906 268.896 284.461 C 273.655 286.017 278.284 287.865 282.775 289.947 C 287.267 292.029 291.622 294.345 295.844 296.845 C 300.066 299.345 304.155 302.029 308.120 304.855 C 312.086 307.681 315.928 310.649 319.660 313.726 C 323.393 316.803 327.015 319.988 330.543 323.255 C 334.071 326.522 337.505 329.870 340.861 333.278 C 344.216 336.685 347.495 340.153 350.712 343.663 C 353.930 347.173 357.087 350.725 360.201 354.305 C 363.315 357.885 366.386 361.493 369.431 365.117 C 372.476 368.741 375.495 372.382 378.505 376.027 C 381.515 379.672 384.517 383.323 387.528 386.968 C 390.538 390.613 393.557 394.253 396.602 397.877 C 399.647 401.501 402.718 405.110 405.831 408.690 C 408.945 412.270 412.103 415.822 415.320 419.332 C 418.538 422.842 421.816 426.309 425.172 429.717 C 428.528 433.125 431.962 436.473 435.490 439.740 C 439.018 443.006 442.640 446.192 446.372 449.268 C 450.104 452.345 453.947 455.314 457.912 458.140 C 461.878 460.966 465.967 463.650 470.189 466.149 C 474.411 468.649 478.766 470.966 483.257 473.048 C 487.749 475.130 492.377 476.978 497.137 478.533 C 501.897 480.089 506.788 481.351 511.792 482.254 C 516.797 483.157 521.915 483.701 527.111 483.814 C 532.306 483.927 537.581 483.610 542.876 482.792 C 548.171 481.975 553.487 480.658 558.744 478.782 C 564.000 476.906 569.196 474.471 574.226 471.443 C 579.256 468.415 584.120 464.793 588.692 460.581 C 593.265 456.368 597.544 451.565 601.399 446.227 C 605.254 440.889 608.683 435.014 611.563 428.717 C 614.442 422.420 616.772 415.700 618.459 408.722 C 620.147 401.744 621.191 394.510 621.548 387.220 C 621.905 379.930 621.576 372.586 620.573 365.395 C 619.570 358.204 617.894 351.168 615.615 344.474 C 613.335 337.780 610.453 331.428 607.077 325.560 C 603.702 319.693 599.834 314.309 595.603 309.494 C 591.373 304.680 586.781 300.433 581.959 296.785 C 577.137 293.137 572.085 290.086 566.921 287.617 C 561.756 285.147 556.479 283.258 551.184 281.902 C 545.889 280.546 540.575 279.722 535.313 279.366 C 530.051 279.010 524.841 279.121 519.727 279.629 C 514.614 280.137 509.597 281.041 504.705 282.272 C 499.813 283.503 495.044 285.061 490.411 286.882 C 485.778 288.704 481.280 290.789 476.918 293.083 C 472.556 295.377 468.330 297.880 464.233 300.546 C 460.136 303.212 456.167 306.041 452.316 308.995 C 448.466 311.950 444.732 315.029 441.101 318.203 C 437.470 321.378 433.942 324.647 430.500 327.986 C 427.059 331.326 423.703 334.736 420.418 338.197 C 417.132 341.657 413.916 345.169 410.752 348.716 C 407.588 352.263 404.477 355.845 401.400 359.449" stroke="#22263D" stroke-width="44.712" stroke-linecap="butt" stroke-linejoin="round" fill="none"/>
</svg>
